<svg class="main-svg" xmlns="http://www.w3.org/2000/svg" xmlns:xlink="http://www.w3.org/1999/xlink" width="800" height="600" style="" viewBox="0 0 800 600"><rect x="0" y="0" width="800" height="600" style="fill: rgb(255, 255, 255); fill-opacity: 1;"/><defs id="defs-83362f"><g class="clips"><clipPath id="clip83362fxyplot" class="plotclip"><rect width="581" height="420"/></clipPath><clipPath class="axesclip" id="clip83362fx"><rect x="80" y="0" width="581" height="600"/></clipPath><clipPath class="axesclip" id="clip83362fy"><rect x="0" y="100" width="800" height="420"/></clipPath><clipPath class="axesclip" id="clip83362fxy"><rect x="80" y="100" width="581" height="420"/></clipPath><clipPath class="contourclip" id="clip47162a"><path d="M0,27.25L581,27.25L581,420L0,420Z"/></clipPath></g><g class="gradients"/><g class="patterns"/></defs><g class="bglayer"><rect class="bg" x="80" y="100" width="581" height="420" style="fill: rgb(229, 236, 246); fill-opacity: 1; stroke-width: 0;"/></g><g class="layer-below"><g class="imagelayer"/><g class="shapelayer"/></g><g class="cartesianlayer"><g class="subplot xy"><g class="layer-subplot"><g class="shapelayer"/><g class="imagelayer"/></g><g class="minor-gridlayer"><g class="x"/><g class="y"/></g><g class="gridlayer"><g class="x"><path class="xgrid crisp" transform="translate(225.25,0)" d="M0,100v420" style="stroke: rgb(255, 255, 255); stroke-opacity: 1; stroke-width: 1px;"/><path class="xgrid crisp" transform="translate(370.5,0)" d="M0,100v420" style="stroke: rgb(255, 255, 255); stroke-opacity: 1; stroke-width: 1px;"/><path class="xgrid crisp" transform="translate(515.75,0)" d="M0,100v420" style="stroke: rgb(255, 255, 255); stroke-opacity: 1; stroke-width: 1px;"/></g><g class="y"><path class="ygrid crisp" transform="translate(0,502.81)" d="M80,0h581" style="stroke: rgb(255, 255, 255); stroke-opacity: 1; stroke-width: 1px;"/><path class="ygrid crisp" transform="translate(0,458.63)" d="M80,0h581" style="stroke: rgb(255, 255, 255); stroke-opacity: 1; stroke-width: 1px;"/><path class="ygrid crisp" transform="translate(0,414.44)" d="M80,0h581" style="stroke: rgb(255, 255, 255); stroke-opacity: 1; stroke-width: 1px;"/><path class="ygrid crisp" transform="translate(0,370.26)" d="M80,0h581" style="stroke: rgb(255, 255, 255); stroke-opacity: 1; stroke-width: 1px;"/><path class="ygrid crisp" transform="translate(0,326.08000000000004)" d="M80,0h581" style="stroke: rgb(255, 255, 255); stroke-opacity: 1; stroke-width: 1px;"/><path class="ygrid crisp" transform="translate(0,281.89)" d="M80,0h581" style="stroke: rgb(255, 255, 255); stroke-opacity: 1; stroke-width: 1px;"/><path class="ygrid crisp" transform="translate(0,237.71)" d="M80,0h581" style="stroke: rgb(255, 255, 255); stroke-opacity: 1; stroke-width: 1px;"/><path class="ygrid crisp" transform="translate(0,193.53)" d="M80,0h581" style="stroke: rgb(255, 255, 255); stroke-opacity: 1; stroke-width: 1px;"/><path class="ygrid crisp" transform="translate(0,149.34)" d="M80,0h581" style="stroke: rgb(255, 255, 255); stroke-opacity: 1; stroke-width: 1px;"/><path class="ygrid crisp" transform="translate(0,105.16)" d="M80,0h581" style="stroke: rgb(255, 255, 255); stroke-opacity: 1; stroke-width: 1px;"/></g></g><g class="zerolinelayer"/><g class="layer-between"><g class="shapelayer"/><g class="imagelayer"/></g><path class="xlines-below"/><path class="ylines-below"/><g class="overlines-below"/><g class="xaxislayer-below"/><g class="yaxislayer-below"/><g class="overaxes-below"/><g class="overplot"><g class="xy" transform="translate(80,100)" clip-path="url(#clip83362fxyplot)"><g class="contourlayer mlayer"><g class="contour" clip-path="url(#clip47162a)" style="opacity: 1;"><g class="heatmapcoloring"/><g class="contourbg"><path d="M0,27.25L581,27.25L581,420L0,420Z" style="stroke: none; fill: rgb(255, 255, 255);"/></g><g class="contourfill"><path d="M37.37,27.25Q35.93,32.48 35.57,33.87C35.41,34.51 35.34,34.61 35.23,35.27C34.97,36.84 34.31,41 34.47,43.28C34.59,45.02 35.16,46.41 35.57,47.81C35.94,49.06 36.27,49.91 36.79,51.3C37.59,53.43 38.88,56.65 40.02,59.31C41.17,61.99 42.34,64.88 43.65,67.33C44.83,69.54 46.49,71.97 47.43,73.42C47.96,74.25 48.08,74.51 48.72,75.34C50.1,77.13 53.82,81.36 55.82,83.36C57.14,84.68 57.92,85.33 59.29,86.44C61.13,87.93 63.87,89.94 65.98,91.37C67.79,92.59 69.2,93.41 71.14,94.57C73.58,96.03 77.31,98.15 79.5,99.39C80.91,100.19 81.47,100.52 83,101.32C85.8,102.79 90.95,105.99 95.035,107.36C98.87,108.64 102.8,108.78 106.71,109.5C110.65,110.22 114.63,110.82 118.57,111.69C122.54,112.57 128.23,114.06 130.43,114.75C131.3,115.02 131.39,115.08 132.22,115.42C134.22,116.24 139.37,118.49 142.29,119.96C144.63,121.14 146.53,122.06 148.48,123.43C150.49,124.84 152.51,126.9 154.14,128.36C155.41,129.5 156.29,130.1 157.47,131.45C159.2,133.43 161.52,137.32 163.11,139.46C164.21,140.94 164.62,141.99 166,143.13C167.98,144.76 172.28,146.56 174.5,147.48C175.85,148.04 176.38,148.27 177.86,148.58C180.58,149.15 185.76,149.72 189.71,149.75C193.66,149.78 197.61,148.94 201.57,148.79C205.52,148.64 209.48,148.92 213.43,148.82C217.38,148.72 222.79,148.58 225.29,148.18C226.47,147.99 226.83,148.04 227.86,147.48C230.05,146.29 235.76,141.47 236.83,139.46C237.29,138.59 237.01,138.14 237.14,137.22C237.35,135.74 238.1,132.95 237.96,131.45C237.87,130.46 237.42,130.02 237.14,129.04C236.71,127.57 236.66,125.38 235.8,123.43C234.69,120.9 232.28,117.8 230.42,115.42C228.76,113.3 226.6,111.23 225.29,109.74C224.46,108.8 224.22,108.38 223.28,107.4C221.45,105.49 216.3,100.81 214.7,99.39C214.1,98.86 214.01,98.85 213.43,98.32C212.03,97.03 208.53,93.73 206.49,91.37C204.62,89.21 202.56,86.18 201.57,84.78C201.12,84.14 200.98,84.05 200.62,83.36C199.8,81.8 198.11,78.06 197.47,75.34C196.86,72.71 196.73,70 196.79,67.33C196.85,64.65 197.23,61.96 197.82,59.31C198.43,56.61 199.67,53.18 200.42,51.3C200.84,50.24 201.1,49.85 201.57,48.88C202.29,47.4 203.21,45.27 204.37,43.28C205.81,40.81 208.16,37.8 209.75,35.27C211.13,33.08 212.62,30.49 213.43,29.03Q213.86,28.26 214.36,27.25L581,27.25L581,420L0,420L0,27.25ZM366.07,283.74C366.61,284.35 366.77,284.53 367.57,284.78C369.6,285.43 376.15,285.24 379.43,284.94C381.79,284.72 383.47,284.16 385.46,283.74C387.42,283.32 389.01,282.99 391.29,282.41C394.56,281.57 399.16,279.9 403.14,279.03C407.07,278.17 411.36,277.77 415,277.18C418.12,276.67 421.54,276.4 423.69,275.72C425.05,275.29 425.53,274.94 426.86,274.21C429.34,272.84 435.77,270.49 437.14,267.71C438.25,265.44 437.62,262.17 436.38,259.69C434.85,256.62 430.68,253.96 427.295,251.38C423.63,248.58 419.27,245.18 415.03999999999996,243.64999999999998C411.19,242.26 407.08,242.8 403.14,242.08C399.17,241.36 394.78,240.52 391.29,239.31C388.35,238.29 385.62,236.74 383.45,235.65C381.87,234.86 381,234.43 379.43,233.48C377.06,232.05 372.85,229.52 370.76,227.63C369.32,226.32 368.63,225.1 367.57,223.79C366.48,222.44 365.18,221.34 364.29,219.62C363.17,217.46 362.46,214.3 361.9,211.6C361.35,208.95 361.74,206.19 360.94,203.59C360.09,200.84 357.75,197.09 356.76,195.57C356.33,194.91 356.22,194.85 355.71,194.25C354.52,192.86 351.52,189.9 349.49,187.56C347.4,185.14 345.72,182.48 343.365,179.97C340.7,177.13 336.22,173.24 334.19,171.53C333.23,170.73 333.09,170.45 332,169.86C329.68,168.61 324.12,165.87 320.14,165.69C316.22,165.51 310.46,167.15 308.29,168.67C307.14,169.48 306.79,170.26 306.35,171.53C305.68,173.47 305.81,176.87 305.75,179.54C305.69,182.21 305.84,184.89 306.01,187.56C306.18,190.23 306.47,192.9 306.8,195.57C307.13,198.25 307.74,201.82 308,203.59C308.13,204.46 308.16,204.72 308.29,205.55C308.52,207.01 308.66,209.48 309.26,211.6C309.98,214.13 311.45,216.95 312.59,219.62C313.73,222.3 314.78,225.03 316.09,227.63C317.4,230.23 318.6,232.73 320.46,235.215C322.61,238.09 326.35,241.54 328.51,243.66C329.89,245.01 330.78,245.66 332,246.86C333.45,248.28 334.86,249.98 336.6,251.68C338.71,253.74 342.31,256.89 343.86,258.28C344.59,258.93 344.71,259.03 345.47,259.69C347.27,261.27 353.06,266.04 354.6,267.71C355.2,268.36 355.17,268.55 355.71,269.21C356.9,270.64 360.03,273.32 361.75,275.72C363.49,278.15 364.85,282.38 366.07,283.74ZM430.08,139.46C432.16,140.53 435.59,140.97 438.71,141.19C442.33,141.45 446.62,140.54 450.57,140.52C454.52,140.5 458.48,141.1 462.43,141.08C466.38,141.06 471.68,140.91 474.29,140.42C475.62,140.17 476.02,139.97 477.24,139.46C479.44,138.54 483.9,136.4 486.14,134.82C487.72,133.71 488.74,132.96 489.79,131.45C491.18,129.45 492.53,126.16 493.09,123.43C493.63,120.81 493.3,118.09 493.2,115.42C493.1,112.75 493,110.05 492.5,107.4C491.99,104.7 491.21,101.97 490.13,99.39C489.02,96.75 487.57,94.3 485.9,91.755C484.06,88.95 481.3,86.2 479.42,83.36C477.67,80.72 475.69,77.72 474.9,75.34C474.33,73.65 474.54,72.13 474.29,70.71C474.07,69.49 474.25,68.57 473.54,67.33C472.23,65.04 467.03,60.59 464.92,59.31C463.92,58.7 463.58,58.74 462.43,58.43C459.96,57.76 454.54,56.73 450.57,56.19C446.63,55.66 442.67,55.38 438.71,55.2C434.76,55.02 430.8,54.49 426.86,55.08C422.75,55.7 417.69,56.75 414.575,59.015C411.8,61.03 409.96,64.46 408.59,67.33C407.36,69.92 406.49,72.66 406.42,75.34C406.35,78 407.16,80.76 408.14,83.36C409.18,86.11 411.33,89.19 412.61,91.37C413.51,92.91 414.21,93.95 415,95.27C415.81,96.62 416.62,97.76 417.43,99.39C418.52,101.59 419.96,104.68 420.71,107.4C421.43,110.03 421.43,112.75 421.91,115.42C422.39,118.1 423.01,120.76 423.59,123.43C424.17,126.1 424.79,129.1 425.4,131.45C425.88,133.32 426.02,135.06 426.86,136.43C427.63,137.69 428.61,138.7 430.08,139.46Z" style="stroke: none; fill: rgb(240, 240, 240);"/><path d="M581,255.85Q573.05,255.9 569.14,256.54C565.18,257.19 561.17,258 557.37,259.735C553.25,261.61 549.54,265.57 545.45,267.72C541.59,269.75 537.6,271.42 533.57,272.42C529.68,273.38 525.62,274.13 521.71,273.71C517.71,273.28 512.02,271.12 509.86,269.72C508.85,269.07 508.73,268.64 508,267.71C506.63,265.96 504.19,262.43 502.73,259.69C501.34,257.08 500.23,253.84 499.37,251.68C498.8,250.23 498.44,249.3 498,248.02C497.52,246.64 497.44,245.25 496.62,243.66C495.4,241.3 492.6,237.65 490.6,235.65C489.11,234.15 487.78,233.47 486.14,232.27C484.18,230.83 481.64,229.2 479.6,227.63C477.71,226.17 476.05,224.54 474.29,223.17C472.65,221.89 471.18,220.88 469.4,219.62C467.29,218.12 464.94,216.12 462.43,214.79C459.86,213.43 456.32,212.37 454.12,211.6C452.7,211.1 451.94,211.2 450.57,210.48C448.21,209.23 444.03,205.41 441.87,203.59C440.53,202.46 439.83,201.87 438.71,200.75C437.28,199.31 435.6,197.55 434.07,195.57C432.26,193.24 429.92,190.21 428.71,187.56C427.68,185.3 427.15,182.34 426.86,180.83C426.71,180.08 426.49,179.85 426.65999999999997,179.12C427.05,177.44 429.42,173.32 431.54,171.53C433.51,169.86 435.98,169.4 438.71,168.45C442.13,167.25 446.59,166 450.57,165.2C454.5,164.41 459.67,163.9 462.43,163.66C463.9,163.53 464.44,163.56 465.82,163.51C468.01,163.43 471.23,163.28 474.29,163.25C477.91,163.22 482.19,163.42 486.14,163.4C490.09,163.38 494.11,163.85 498,163.12C502.02,162.37 506.45,160.25 509.86,158.83C512.54,157.71 514.79,156.62 516.89,155.49C518.67,154.53 519.97,153.72 521.71,152.57C523.88,151.14 526.76,149.26 528.82,147.48C530.64,145.91 532.15,144.02 533.57,142.57C534.7,141.41 535.6,140.82 536.65,139.46C538.17,137.48 540.29,134.21 541.35,131.45C542.35,128.86 542.2,125.69 543.01,123.43C543.65,121.62 544.59,120.18 545.43,118.78C546.17,117.54 546.58,116.68 547.74,115.42C549.79,113.21 553.95,109.58 557.53,107.52000000000001C561.09,105.47 565.19,104.14 569.14,103.08Q573.02,102.04 581,101.16L581,153.7Q579.31,154.6 578.14,155.49C575.93,157.17 571.48,160.74 569.2049999999999,163.635C567.25,166.13 564.92,168.88 564.9,171.53C564.88,174.19 567.23,177.02 569.13,179.55C571.27,182.4 575.19,185.63 577.43,187.56Q578.83,188.77 581,190.31ZM0,196.06Q7.95,198.44 11.86,199.72C15.73,200.99 19.45,202.41 23.345,203.715C27.35,205.06 31.74,206.28 35.57,207.67C39.03,208.92 43.29,210.76 45.35,211.6C46.3,211.99 46.46,212.04 47.43,212.47C49.77,213.51 56.88,216.72 59.29,218.07C60.41,218.7 60.59,218.94 61.64,219.62C63.74,220.98 69,224.13 71.14,225.64C72.29,226.45 72.56,226.78 73.69,227.63C75.81,229.22 81.18,232.98 83,234.36C83.78,234.95 83.87,235.02 84.63,235.65C86.54,237.21 91.45,241.23 94.485,244.015C97.28,246.57 100.05,249.33 102.24,251.68C103.98,253.54 105.42,255.42 106.71,256.88C107.67,257.97 108.21,258.51 109.27,259.69C111.05,261.67 114.74,265.64 116.39,267.71C117.37,268.93 117.53,269.7 118.57,270.75C120.12,272.32 123.21,274.2 125.31,275.72C127.13,277.04 128.24,278.52 130.43,279.39C133.46,280.6 138.33,280.56 142.29,281.02C146.24,281.48 150.18,281.97 154.14,282.13C158.09,282.29 162.05,282.17 166,281.96C169.96,281.75 173.91,281.19 177.86,280.85C181.81,280.51 185.76,279.86 189.71,279.92C193.67,279.98 197.66,280.54 201.57,281.19C205.46,281.84 209.24,282.73 213.11,283.81C217.14,284.94 221.69,286.41 225.29,287.87C228.29,289.09 231.13,290.76 233.32,291.76C234.82,292.45 235.54,292.63 237.14,293.41C240.02,294.81 244.94,297.91 248.94,299.79999999999995C252.85,301.65 256.82,303.73 260.86,304.65C264.74,305.53 269.18,304.75 272.71,305.38C275.66,305.91 278.54,306.86 280.68,307.79C282.25,308.47 283.1,309.05 284.57,310.03C286.7,311.46 289.79,314.44 292.02,315.8C293.62,316.78 294.58,317.02 296.43,317.87C299.54,319.3 304.89,321.93 308.99,323.515C312.78,324.98 316.38,325.82 320.14,327.16C324.08,328.56 328.12,330.31 332.1,331.78999999999996C336.03,333.25 339.93,334.62 343.86,335.99C347.8,337.36 351.77,340.05 355.71,340C359.67,339.95 364.89,337.43 367.57,335.66C369.3,334.52 369.66,333.22 371.16,331.83C373.3,329.86 377.99,326.68 379.43,325.23C380.02,324.63 379.91,324.42 380.53,323.82C382.23,322.16 387.54,318.39 391.32000000000005,315.83500000000004C395.26,313.17 399.66,310.56 403.725,308.18C407.55,305.94 412.25,303.47 415,301.92C416.59,301.02 417.24,300.52 418.76,299.77C420.92,298.7 423.85,297.27 426.86,296.35C430.39,295.27 434.74,294.54 438.71,294.02C442.65,293.5 446.63,292.95 450.57,293.21C454.54,293.47 458.9,294.39 462.43,295.61C465.52,296.68 468.55,298.69 470.74,299.77C472.17,300.47 472.84,300.68 474.29,301.49C476.8,302.89 482.25,306.45 484.25,307.79C485.14,308.39 485.28,308.51 486.14,309.13C488.05,310.5 493.26,313.53 495.28,315.8C496.69,317.39 497.1,319.2 498,320.62C498.76,321.82 500.24,322.71 500.27,323.82C500.3,324.97 498.75,326.13 498,327.4C497.18,328.79 495.69,330.17 495.57,331.83C495.42,333.78 496.22,337.13 498,338.44C500.31,340.14 506.92,338.66 509.86,339.02C511.63,339.24 512.45,339.59 514.06,339.85C516.23,340.2 518.89,340.39 521.71,340.83C525.24,341.38 529.62,342.27 533.57,342.99C537.52,343.71 541.47,344.61 545.43,345.17C549.37,345.73 553.38,346.75 557.29,346.37C561.28,345.98 566.12,344.09 569.14,342.75C571.18,341.84 572.44,341.27 573.99,339.85C576.04,337.97 578.57,333.71 579.76,331.83Q580.37,330.87 581,329.57L581,420L0,420ZM0,88.95Q0.97,90.33 1.71,91.37C3.06,93.27 5.72,96.84 7.49,99.39C9.07,101.67 10.86,104.54 11.86,105.93C12.35,106.61 12.51,106.7 13,107.4C14.1,108.99 16.85,112.65 17.99,115.42C19.05,118 20.55,120.95 19.82,123.43C18.97,126.34 14.89,129.14 11.739999999999998,131.345Q8.36,133.71 0,136.95ZM581,36.76Q573.08,37.53 569.14,38.09C565.18,38.65 561.27,39.29 557.29,40.1C553.18,40.94 547.28,40.78 544.855,43.06C542.87,44.93 542,49.08 542.37,51.3C542.66,53.03 544.54,54.15 545.43,55.55C546.23,56.82 546.6,57.85 547.51,59.31C548.89,61.51 551.51,64.6 553.15,67.33C554.72,69.95 557.07,72.64 557.21,75.34C557.35,77.98 555.92,80.92 554.17,83.36C552.09,86.27 548.23,89.06 544.785,91.09C541.36,93.11 537.41,95.17 533.57,95.53C529.72,95.89 523.82,94.38 521.71,93.22C520.74,92.69 520.74,92.21 519.97,91.37C518.37,89.64 514.51,85.67 512.71,83.36C511.47,81.77 510.62,80.51 509.86,79.1C509.18,77.84 508.71,76.86 508.29,75.34C507.7,73.2 507.25,70.01 507.14,67.33C507.03,64.66 507.33,61.98 507.62,59.31C507.91,56.63 508.47,53.8 508.86,51.3C509.21,49.1 509.43,46.51 509.86,45.08C510.1,44.28 510.39,44.11 510.67,43.28C511.25,41.58 513.13,37.06 512.56,35.27C512.18,34.09 511.17,33.7 509.86,32.88C507.38,31.34 501.52,28.92 498,28.03Q495.36,27.36 490.82,27.25L581,27.25ZM6.71,27.25Q4.45,32.61 3.33,35.27Q2.22,37.91 0,43.17L0,27.25ZM237.14,244.85C235.98,244.39 235.75,244.19 234.66,243.66C232.54,242.63 227.92,240.59 225.29,239.09C223.25,237.93 221.85,237 220.04,235.65C217.91,234.06 215.06,231.51 213.43,230C212.42,229.06 211.51,228.79 211.05,227.63C210.34,225.84 210.52,221.28 211.3,219.62C211.76,218.63 212.48,218.52 213.43,217.72C215.19,216.24 218.94,213.1 221.17,211.6C222.71,210.56 223.52,210.15 225.29,209.26C228.3,207.75 233.68,205.21 237.785,203.765C241.57,202.43 245.17,200.86 249,200.75C252.96,200.64 257.83,201.4 261.185,203.3C264.39,205.11 266.86,208.94 268.88,211.6C270.51,213.74 271.89,216.35 272.71,217.81C273.14,218.58 273.25,218.79 273.63,219.62C274.41,221.33 275.79,224.96 276.91,227.63C278.04,230.31 279.61,232.93 280.38,235.65C281.12,238.27 282.58,241.57 281.54,243.66C280.38,246 275.98,247.5 272.71,248.52C269.15,249.63 264.81,249.67 260.86,249.71C256.91,249.75 252.91,249.54 249,248.75C245,247.94 239.6,245.84 237.14,244.85ZM379.43,139.22C376.08,139.31 370.36,134.49 369,131.45C367.93,129.06 368.23,125.28 369.71,123.43C371.38,121.35 376.74,120.03 379.43,120.33C381.51,120.56 383.23,121.87 384.7,123.43C386.48,125.33 389.29,128.98 388.78,131.45C388.19,134.32 382.67,139.13 379.43,139.22Z" style="stroke: none; fill: rgb(217, 217, 217);"/><path d="M0,218.46Q1.46,219.02 2.54,219.62C4.71,220.83 9.7,224.4 11.86,225.85C13.02,226.62 13.52,226.72 14.52,227.63C16.31,229.27 19.39,233.1 20.98,235.65C22.24,237.66 22.93,239.98 23.71,241.44C24.2,242.37 24.26,242.78 25.03,243.66C26.77,245.64 31.54,249.99 35.345,251.755C39.03,253.47 43.42,253.06 47.43,254.27C51.62,255.53 56.15,257.01 59.93,259.265C63.67,261.5 68.41,266.01 70.04,267.71C70.64,268.34 70.69,268.46 71.14,269.13C72.07,270.5 74.05,273.34 75,275.72C75.99,278.19 76.54,281.05 76.87,283.74C77.2,286.4 77.04,289.09 76.99,291.76C76.94,294.43 76.39,297.11 76.54,299.77C76.69,302.45 77.03,305.18 77.88,307.79C78.77,310.53 80.89,314.3 81.89,315.8C82.32,316.45 82.49,316.49 83,317.09C84.16,318.45 86.61,321.98 88.69,323.82C90.59,325.51 92.69,326.58 94.86,327.88C97.17,329.26 100.01,330.76 102.17,331.83C103.85,332.66 104.81,333.18 106.71,333.88C109.7,334.98 114.58,336.63 118.57,337.29C122.49,337.94 126.51,338.3 130.43,337.85C134.42,337.4 138.8,335.63 142.29,334.52C145.09,333.63 147.65,332.72 149.79,331.83C151.46,331.14 152.45,330.71 154.14,329.78C156.71,328.37 161.4,325.19 163.52,323.82C164.62,323.11 164.83,322.84 166,322.18C168.45,320.78 174.83,317.39 177.86,316.45C179.61,315.91 180.55,316.02 182.19,315.8C184.35,315.52 186.9,315.02 189.71,314.95C193.3,314.86 197.99,315.03 201.97,315.70000000000005C205.89,316.36 209.76,317.51 213.43,318.88C217.05,320.23 221.99,322.83 223.86,323.82C224.57,324.19 224.62,324.22 225.29,324.66C227.11,325.86 232.93,330.45 235.02,331.83C235.96,332.46 236.16,332.49 237.14,333.09C239.44,334.48 244.67,337.89 248.58499999999998,340.14C252.57,342.44 257.66,345.51 260.86,346.73C262.76,347.45 263.87,347.47 265.62,347.86C267.75,348.33 270.03,348.89 272.71,349.32C276.15,349.87 280.63,350.12 284.57,350.71C288.53,351.31 292.47,352.06 296.43,352.9C300.45,353.76 304.51,354.93 308.51,355.825C312.42,356.7 316.25,357.39 320.14,358.22C324.08,359.06 328.13,359.86 332,360.86C335.76,361.83 339.22,363.01 343.03,364.105C347.11,365.27 351.55,366.49 355.71,367.65C359.73,368.77 364.62,370.18 367.57,370.93C369.31,371.38 370.14,371.57 371.75,371.91C373.92,372.37 376.58,372.91 379.43,373.34C382.95,373.87 387.34,374.3 391.29,374.73C395.24,375.16 399.19,375.49 403.14,375.94C407.1,376.39 411.04,376.98 415,377.44C418.95,377.9 422.9,378.43 426.86,378.71C430.81,378.99 434.76,379.17 438.71,379.1C442.66,379.03 446.64,378.85 450.57,378.29C454.54,377.72 458.48,376.74 462.43,375.7C466.45,374.64 470.49,373.21 474.47,371.96000000000004C478.39,370.73 482.21,369.34 486.14,368.26C490.06,367.19 494.02,366.23 498,365.5C501.97,364.77 506.03,364.24 510.015,363.895C513.93,363.56 518.06,363.41 521.71,363.43C524.92,363.45 528.6,363.79 530.76,363.89C531.96,363.95 532.31,363.92 533.57,364.02C536.16,364.23 541.48,364.83 545.43,365.4C549.39,365.97 553.35,366.69 557.29,367.46C561.25,368.23 565.63,369.21 569.14,370.02C571.97,370.68 574.6,371.41 576.77,371.91Q578.38,372.28 581,372.82L581,420L0,420ZM450.57,332.53C449.74,332.59 448.62,332.52 447.66,331.83C445.96,330.6 442.24,326.12 442.68,323.82C443.12,321.47 447.52,318.5 450.57,317.95C453.99,317.33 460.26,319.95 462.43,321.41C463.51,322.14 464.36,323.02 464.35,323.82C464.34,324.61 463.44,325.32 462.43,326.16C460.46,327.81 454.27,330.87 452.28,331.83C451.49,332.21 451.22,332.48 450.57,332.53Z" style="stroke: none; fill: rgb(189, 189, 189);"/><path d="M0,325.67Q6.24,330.4 8.46,331.83C9.82,332.7 10.36,332.99 11.86,333.75C14.59,335.13 21.34,338.1 23.71,339.06C24.71,339.47 24.88,339.58 25.87,339.85C27.93,340.41 32.16,341.16 35.57,341.63C39.31,342.15 43.48,342.28 47.43,342.73C51.39,343.18 55.65,343.37 59.29,344.31C62.58,345.16 66.23,347.06 68.39,347.86C69.57,348.3 69.92,348.31 71.14,348.82C73.73,349.9 80.43,353.33 83,354.57C84.24,355.16 84.57,355.34 85.76,355.88C87.91,356.86 91.65,358.56 94.86,359.87C98.39,361.31 102.23,362.87 106.10499999999999,364.11C110.12,365.39 114.44,366.59 118.57,367.4C122.55,368.18 126.47,368.88 130.43,368.92C134.38,368.96 138.36,368.44 142.29,367.64C146.33,366.81 150.41,365.48 154.33999999999997,363.97C158.31,362.44 162.29,359.91 166,358.52C169.19,357.32 173.03,356.5 175.18,355.88C176.34,355.54 176.66,355.49 177.86,355.1C180.41,354.28 185.7,351.53 189.71,350.91C193.61,350.3 197.66,350.62 201.57,351.28C205.57,351.95 210.93,354.14 213.43,354.97C214.6,355.36 214.87,355.47 215.99,355.88C218.13,356.66 222.32,358.04 225.29,359.4C228.17,360.72 231.35,362.85 233.56,363.89C234.98,364.55 235.59,364.73 237.14,365.32C239.94,366.39 245.3,368.48 249,369.62C252.17,370.6 255.79,371.41 257.96,371.91C259.19,372.19 259.56,372.3 260.86,372.5C263.47,372.9 268.75,373.46 272.71,373.75C276.66,374.04 280.62,374.11 284.57,374.23C288.52,374.35 292.48,374.36 296.43,374.49C300.38,374.63 304.34,374.74 308.29,375.04C312.25,375.35 316.2,375.79 320.14,376.32C324.1,376.85 328.5,377.55 332,378.22C334.81,378.76 337.39,379.47 339.56,379.92C341.19,380.26 342.07,380.39 343.86,380.75C346.83,381.34 351.76,382.39 355.71,383.17C359.66,383.95 363.61,384.82 367.57,385.43C371.51,386.03 375.47,386.44 379.43,386.81C383.38,387.18 388.43,387.44 391.29,387.65C392.91,387.77 393.59,387.84 395.09,387.94C397.28,388.09 400.2,388.32 403.14,388.44C406.71,388.58 411.05,388.51 415,388.66C418.95,388.81 422.91,389.13 426.86,389.35C430.81,389.57 434.76,389.82 438.71,389.96C442.66,390.1 446.62,390.22 450.57,390.2C454.52,390.18 458.45,390.17 462.43,389.82C466.49,389.46 470.7,388.88 474.69,388.03C478.6,387.2 482.28,385.8 486.14,384.79C490.05,383.77 494,382.76 498,381.95C502.03,381.14 506.19,380.4 510.21000000000004,379.94C514.09,379.5 517.85,379.32 521.71,379.2C525.63,379.08 530.12,379.04 533.57,379.21C536.26,379.34 538.58,379.72 540.72,379.92C542.45,380.08 543.51,380.12 545.43,380.34C548.49,380.69 553.34,381.39 557.29,382.02C561.25,382.66 565.19,383.4 569.14,384.15Q573.1,384.91 581,386.55L581,420L0,420Z" style="stroke: none; fill: rgb(150, 150, 150);"/><path d="M0,370.2Q7.9,368.95 11.86,368.41C15.81,367.87 19.75,367.34 23.71,366.98C27.66,366.62 31.61,366.31 35.57,366.23C39.52,366.15 43.49,366.17 47.43,366.51C51.39,366.85 55.39,367.39 59.29,368.3C63.22,369.21 67.01,370.61 70.89500000000001,371.99C74.91,373.41 79.4,375.3 83,376.73C85.9,377.89 88.67,379.02 90.85,379.92C92.41,380.57 93.17,380.91 94.86,381.61C97.76,382.81 103.73,385.29 106.71,386.42C108.49,387.1 109.38,387.37 111.01,387.94C113.18,388.7 115.73,389.91 118.57,390.58C122.04,391.4 126.48,392.16 130.43,392.11C134.39,392.06 138.79,391.07 142.29,390.27C145.15,389.62 147.79,388.59 149.96,387.94C151.56,387.46 152.39,387.23 154.14,386.71C157.09,385.83 162.06,384.25 166,383.1C169.88,381.96 173.66,380.73 177.59500000000003,379.845C181.57,378.95 185.68,378.18 189.71,377.78C193.67,377.38 197.62,377.28 201.57,377.42C205.53,377.56 210.28,378.08 213.43,378.62C215.55,378.99 216.83,379.49 218.69,379.92C220.76,380.4 222.78,380.74 225.29,381.32C228.67,382.1 233.19,383.29 237.14,384.26C241.09,385.23 245.79,386.49 249,387.12C251.16,387.54 252.57,387.67 254.46,387.94C256.51,388.23 258.39,388.59 260.86,388.8C264.2,389.08 268.76,389.16 272.71,389.19C276.66,389.22 280.62,388.99 284.57,388.99C288.52,388.99 292.48,389.04 296.43,389.18C300.38,389.32 304.34,389.71 308.29,389.85C312.24,389.99 316.19,389.83 320.14,390.02C324.1,390.21 328.06,390.49 332,390.97C335.96,391.45 339.91,392.24 343.86,392.89C347.81,393.54 351.84,394.33 355.71,394.86C359.41,395.37 362.81,395.72 366.59000000000003,396.03999999999996C370.69,396.39 375.23,396.61 379.43,396.84C383.46,397.06 387.34,397.23 391.29,397.42C395.24,397.61 399.19,397.82 403.14,397.99C407.09,398.16 411.05,398.34 415,398.43C418.95,398.52 422.91,398.44 426.86,398.53C430.81,398.62 434.76,398.8 438.71,398.95C442.66,399.1 446.62,399.34 450.57,399.44C454.52,399.54 458.48,399.61 462.43,399.53C466.38,399.45 470.34,399.28 474.29,398.95C478.25,398.62 482.55,398.11 486.14,397.55C489.15,397.08 492.21,396.41 494.4,395.95C495.85,395.64 496.45,395.43 498,395.12C500.8,394.55 505.89,393.49 509.86,393.05C513.8,392.61 517.76,392.58 521.71,392.48C525.66,392.38 529.62,392.41 533.57,392.45C537.52,392.49 541.48,392.54 545.43,392.75C549.39,392.96 553.35,393.27 557.29,393.73C561.25,394.19 566.67,395.12 569.14,395.52C570.27,395.7 570.52,395.77 571.61,395.95Q573.73,396.31 581,397.46L581,420L0,420Z" style="stroke: none; fill: rgb(115, 115, 115);"/><path d="M0,385.77Q7.91,385.03 11.86,384.73C15.81,384.44 19.76,384.11 23.71,384C27.66,383.89 31.63,383.78 35.57,384.06C39.53,384.34 43.89,384.96 47.43,385.7C50.37,386.31 53.2,387.31 55.38,387.94C56.91,388.39 57.66,388.52 59.29,389.11C62.19,390.16 68.38,392.89 71.14,394.18C72.66,394.89 73.21,395.22 74.61,395.95C76.8,397.1 80.31,399.07 83,400.46C85.45,401.72 87.95,402.9 90.08,403.97C91.83,404.85 92.88,405.52 94.86,406.42C97.9,407.8 103.82,410.24 106.71,411.13C108.32,411.62 109.04,411.65 110.56,411.98C112.75,412.46 115.62,413.32 118.57,413.72C122.12,414.21 126.45,414.65 130.43,414.41C134.54,414.16 138.83,413.11 142.85,412.155C146.73,411.23 150.34,410.02 154.14,408.81C158.06,407.56 163.67,405.6 166,404.76C166.98,404.41 167.13,404.33 168.08,403.97C170.14,403.19 174.42,401.44 177.86,400.29C181.6,399.04 185.76,397.53 189.71,396.8C193.51,396.1 197.24,395.91 201.115,395.9175C205.14,395.92 209.37,396.53 213.43,396.9C217.42,397.26 221.34,397.68 225.29,398.11C229.24,398.54 233.2,398.93 237.14,399.49C241.1,400.05 245.04,400.95 249,401.49C252.94,402.03 256.9,402.54 260.86,402.72C264.81,402.9 268.76,402.58 272.71,402.6C276.66,402.62 280.62,402.87 284.57,402.87C288.52,402.87 292.48,402.76 296.43,402.6C300.38,402.44 304.34,402.11 308.29,401.92C312.24,401.74 316.19,401.47 320.14,401.49C324.09,401.51 328.05,401.71 332,402.03C335.96,402.35 340.52,403.08 343.86,403.42C346.29,403.67 348.13,403.81 350.16,403.97C352.07,404.12 353.51,404.23 355.71,404.37C358.92,404.57 363.62,404.78 367.57,404.99C371.52,405.2 375.48,405.45 379.43,405.64C383.38,405.83 387.34,405.97 391.29,406.12C395.24,406.27 399.19,406.39 403.14,406.52C407.09,406.65 411.05,406.79 415,406.89C418.95,406.99 422.91,407.07 426.86,407.13C430.81,407.19 434.76,407.18 438.71,407.27C442.66,407.36 446.62,407.57 450.57,407.68C454.52,407.78 458.48,407.89 462.43,407.9C466.38,407.91 470.34,407.82 474.29,407.73C478.24,407.64 482.19,407.6 486.14,407.38C490.1,407.16 494.05,406.83 498,406.41C501.96,405.99 505.9,405.2 509.86,404.86C513.8,404.52 517.76,404.44 521.71,404.35C525.66,404.26 529.62,404.3 533.57,404.33C537.52,404.36 541.48,404.43 545.43,404.53C549.38,404.63 553.34,404.72 557.29,404.94C561.24,405.16 565.19,405.45 569.14,405.84Q573.1,406.23 581,407.3L581,420L0,420Z" style="stroke: none; fill: rgb(82, 82, 82);"/><path d="M170.63,420Q175.13,418.12 177.86,417.16C181.31,415.94 185.75,414.3 189.71,413.43C193.53,412.59 198.53,412.09 201.195,411.935C202.61,411.85 203.1,411.95 204.46,411.98C206.71,412.03 210.23,412.07 213.43,412.26C217.11,412.48 221.34,412.94 225.29,413.32C229.24,413.71 233.19,414.21 237.14,414.57C241.09,414.93 245.05,415.24 249,415.5C252.95,415.76 256.91,416.08 260.86,416.13C264.81,416.18 268.76,416.04 272.71,415.83C276.67,415.62 280.62,415.25 284.57,414.89C288.53,414.53 292.48,414.07 296.43,413.68C300.38,413.29 304.57,412.85 308.29,412.56C311.59,412.3 315.54,412.11 317.66,411.98C318.75,411.91 319.06,411.85 320.14,411.83C322.19,411.79 326.85,411.94 329.02,411.98C330.28,412 330.68,412 332,412.03C334.64,412.1 339.91,412.3 343.86,412.43C347.81,412.56 351.76,412.68 355.71,412.83C359.66,412.98 363.62,413.17 367.57,413.35C371.52,413.53 375.48,413.75 379.43,413.91C383.38,414.07 387.34,414.2 391.29,414.31C395.24,414.42 399.19,414.51 403.14,414.59C407.09,414.68 411.05,414.75 415,414.82C418.95,414.89 422.91,414.96 426.86,415.03C430.81,415.1 434.76,415.16 438.71,415.23C442.66,415.3 446.62,415.39 450.57,415.47C454.52,415.55 458.48,415.66 462.43,415.73C466.38,415.8 470.34,415.83 474.29,415.87C478.24,415.91 482.19,415.96 486.14,415.97C490.09,415.98 494.05,416.03 498,415.95C501.95,415.87 505.91,415.65 509.86,415.51C513.81,415.38 517.76,415.21 521.71,415.14C525.66,415.07 529.62,415.07 533.57,415.08C537.52,415.09 541.48,415.12 545.43,415.19C549.38,415.26 553.34,415.35 557.29,415.48C561.24,415.61 565.19,415.76 569.14,415.98Q573.09,416.2 581,416.82L581,420ZM0,397.88Q7.91,397.67 11.86,397.72C15.81,397.77 19.77,397.73 23.71,398.16C27.68,398.59 31.63,399.36 35.57,400.3C39.59,401.26 43.65,402.52 47.605000000000004,403.905C51.56,405.29 55.99,407.12 59.29,408.63C61.8,409.78 63.72,410.89 65.77,411.98C67.65,412.98 69.13,413.79 71.14,414.91Q73.74,416.36 80.06,420L0,420Z" style="stroke: none; fill: rgb(37, 37, 37);"/><path d="M0,408.96Q8.15,409.5 11.86,410.05C15.19,410.54 19.16,411.52 21.27,411.98C22.35,412.22 22.6,412.25 23.71,412.55C26.18,413.22 31.89,414.91 35.57,416.23Q38.86,417.41 44.77,420L0,420Z" style="stroke: none; fill: rgb(0, 0, 0);"/></g><g class="contourlines"><g class="contourlevel"><path class="openline" d="M37.37,27.25Q35.93,32.48 35.57,33.87C35.41,34.51 35.34,34.61 35.23,35.27C34.97,36.84 34.31,41 34.47,43.28C34.59,45.02 35.16,46.41 35.57,47.81C35.94,49.06 36.27,49.91 36.79,51.3C37.59,53.43 38.88,56.65 40.02,59.31C41.17,61.99 42.34,64.88 43.65,67.33C44.83,69.54 46.49,71.97 47.43,73.42C47.96,74.25 48.08,74.51 48.72,75.34C50.1,77.13 53.82,81.36 55.82,83.36C57.14,84.68 57.92,85.33 59.29,86.44C61.13,87.93 63.87,89.94 65.98,91.37C67.79,92.59 69.2,93.41 71.14,94.57C73.58,96.03 77.31,98.15 79.5,99.39C80.91,100.19 81.47,100.52 83,101.32C85.8,102.79 90.95,105.99 95.035,107.36C98.87,108.64 102.8,108.78 106.71,109.5C110.65,110.22 114.63,110.82 118.57,111.69C122.54,112.57 128.23,114.06 130.43,114.75C131.3,115.02 131.39,115.08 132.22,115.42C134.22,116.24 139.37,118.49 142.29,119.96C144.63,121.14 146.53,122.06 148.48,123.43C150.49,124.84 152.51,126.9 154.14,128.36C155.41,129.5 156.29,130.1 157.47,131.45C159.2,133.43 161.52,137.32 163.11,139.46C164.21,140.94 164.62,141.99 166,143.13C167.98,144.76 172.28,146.56 174.5,147.48C175.85,148.04 176.38,148.27 177.86,148.58C180.58,149.15 185.76,149.72 189.71,149.75C193.66,149.78 197.61,148.94 201.57,148.79C205.52,148.64 209.48,148.92 213.43,148.82C217.38,148.72 222.79,148.58 225.29,148.18C226.47,147.99 226.83,148.04 227.86,147.48C230.05,146.29 235.76,141.47 236.83,139.46C237.29,138.59 237.01,138.14 237.14,137.22C237.35,135.74 238.1,132.95 237.96,131.45C237.87,130.46 237.42,130.02 237.14,129.04C236.71,127.57 236.66,125.38 235.8,123.43C234.69,120.9 232.28,117.8 230.42,115.42C228.76,113.3 226.6,111.23 225.29,109.74C224.46,108.8 224.22,108.38 223.28,107.4C221.45,105.49 216.3,100.81 214.7,99.39C214.1,98.86 214.01,98.85 213.43,98.32C212.03,97.03 208.53,93.73 206.49,91.37C204.62,89.21 202.56,86.18 201.57,84.78C201.12,84.14 200.98,84.05 200.62,83.36C199.8,81.8 198.11,78.06 197.47,75.34C196.86,72.71 196.73,70 196.79,67.33C196.85,64.65 197.23,61.96 197.82,59.31C198.43,56.61 199.67,53.18 200.42,51.3C200.84,50.24 201.1,49.85 201.57,48.88C202.29,47.4 203.21,45.27 204.37,43.28C205.81,40.81 208.16,37.8 209.75,35.27C211.13,33.08 212.62,30.49 213.43,29.03Q213.86,28.26 214.36,27.25" style="stroke-miterlimit: 1; vector-effect: none; fill: none; stroke: rgb(0, 0, 0); stroke-opacity: 1; stroke-width: 2px;"/><path class="closedline" d="M366.07,283.74C366.61,284.35 366.77,284.53 367.57,284.78C369.6,285.43 376.15,285.24 379.43,284.94C381.79,284.72 383.47,284.16 385.46,283.74C387.42,283.32 389.01,282.99 391.29,282.41C394.56,281.57 399.16,279.9 403.14,279.03C407.07,278.17 411.36,277.77 415,277.18C418.12,276.67 421.54,276.4 423.69,275.72C425.05,275.29 425.53,274.94 426.86,274.21C429.34,272.84 435.77,270.49 437.14,267.71C438.25,265.44 437.62,262.17 436.38,259.69C434.85,256.62 430.68,253.96 427.295,251.38C423.63,248.58 419.27,245.18 415.03999999999996,243.64999999999998C411.19,242.26 407.08,242.8 403.14,242.08C399.17,241.36 394.78,240.52 391.29,239.31C388.35,238.29 385.62,236.74 383.45,235.65C381.87,234.86 381,234.43 379.43,233.48C377.06,232.05 372.85,229.52 370.76,227.63C369.32,226.32 368.63,225.1 367.57,223.79C366.48,222.44 365.18,221.34 364.29,219.62C363.17,217.46 362.46,214.3 361.9,211.6C361.35,208.95 361.74,206.19 360.94,203.59C360.09,200.84 357.75,197.09 356.76,195.57C356.33,194.91 356.22,194.85 355.71,194.25C354.52,192.86 351.52,189.9 349.49,187.56C347.4,185.14 345.72,182.48 343.365,179.97C340.7,177.13 336.22,173.24 334.19,171.53C333.23,170.73 333.09,170.45 332,169.86C329.68,168.61 324.12,165.87 320.14,165.69C316.22,165.51 310.46,167.15 308.29,168.67C307.14,169.48 306.79,170.26 306.35,171.53C305.68,173.47 305.81,176.87 305.75,179.54C305.69,182.21 305.84,184.89 306.01,187.56C306.18,190.23 306.47,192.9 306.8,195.57C307.13,198.25 307.74,201.82 308,203.59C308.13,204.46 308.16,204.72 308.29,205.55C308.52,207.01 308.66,209.48 309.26,211.6C309.98,214.13 311.45,216.95 312.59,219.62C313.73,222.3 314.78,225.03 316.09,227.63C317.4,230.23 318.6,232.73 320.46,235.215C322.61,238.09 326.35,241.54 328.51,243.66C329.89,245.01 330.78,245.66 332,246.86C333.45,248.28 334.86,249.98 336.6,251.68C338.71,253.74 342.31,256.89 343.86,258.28C344.59,258.93 344.71,259.03 345.47,259.69C347.27,261.27 353.06,266.04 354.6,267.71C355.2,268.36 355.17,268.55 355.71,269.21C356.9,270.64 360.03,273.32 361.75,275.72C363.49,278.15 364.85,282.38 366.07,283.74Z" style="stroke-miterlimit: 1; vector-effect: none; fill: none; stroke: rgb(0, 0, 0); stroke-opacity: 1; stroke-width: 2px;"/><path class="closedline" d="M430.08,139.46C432.16,140.53 435.59,140.97 438.71,141.19C442.33,141.45 446.62,140.54 450.57,140.52C454.52,140.5 458.48,141.1 462.43,141.08C466.38,141.06 471.68,140.91 474.29,140.42C475.62,140.17 476.02,139.97 477.24,139.46C479.44,138.54 483.9,136.4 486.14,134.82C487.72,133.71 488.74,132.96 489.79,131.45C491.18,129.45 492.53,126.16 493.09,123.43C493.63,120.81 493.3,118.09 493.2,115.42C493.1,112.75 493,110.05 492.5,107.4C491.99,104.7 491.21,101.97 490.13,99.39C489.02,96.75 487.57,94.3 485.9,91.755C484.06,88.95 481.3,86.2 479.42,83.36C477.67,80.72 475.69,77.72 474.9,75.34C474.33,73.65 474.54,72.13 474.29,70.71C474.07,69.49 474.25,68.57 473.54,67.33C472.23,65.04 467.03,60.59 464.92,59.31C463.92,58.7 463.58,58.74 462.43,58.43C459.96,57.76 454.54,56.73 450.57,56.19C446.63,55.66 442.67,55.38 438.71,55.2C434.76,55.02 430.8,54.49 426.86,55.08C422.75,55.7 417.69,56.75 414.575,59.015C411.8,61.03 409.96,64.46 408.59,67.33C407.36,69.92 406.49,72.66 406.42,75.34C406.35,78 407.16,80.76 408.14,83.36C409.18,86.11 411.33,89.19 412.61,91.37C413.51,92.91 414.21,93.95 415,95.27C415.81,96.62 416.62,97.76 417.43,99.39C418.52,101.59 419.96,104.68 420.71,107.4C421.43,110.03 421.43,112.75 421.91,115.42C422.39,118.1 423.01,120.76 423.59,123.43C424.17,126.1 424.79,129.1 425.4,131.45C425.88,133.32 426.02,135.06 426.86,136.43C427.63,137.69 428.61,138.7 430.08,139.46Z" style="stroke-miterlimit: 1; vector-effect: none; fill: none; stroke: rgb(0, 0, 0); stroke-opacity: 1; stroke-width: 2px;"/></g><g class="contourlevel"><path class="openline" d="M581,255.85Q573.05,255.9 569.14,256.54C565.18,257.19 561.17,258 557.37,259.735C553.25,261.61 549.54,265.57 545.45,267.72C541.59,269.75 537.6,271.42 533.57,272.42C529.68,273.38 525.62,274.13 521.71,273.71C517.71,273.28 512.02,271.12 509.86,269.72C508.85,269.07 508.73,268.64 508,267.71C506.63,265.96 504.19,262.43 502.73,259.69C501.34,257.08 500.23,253.84 499.37,251.68C498.8,250.23 498.44,249.3 498,248.02C497.52,246.64 497.44,245.25 496.62,243.66C495.4,241.3 492.6,237.65 490.6,235.65C489.11,234.15 487.78,233.47 486.14,232.27C484.18,230.83 481.64,229.2 479.6,227.63C477.71,226.17 476.05,224.54 474.29,223.17C472.65,221.89 471.18,220.88 469.4,219.62C467.29,218.12 464.94,216.12 462.43,214.79C459.86,213.43 456.32,212.37 454.12,211.6C452.7,211.1 451.94,211.2 450.57,210.48C448.21,209.23 444.03,205.41 441.87,203.59C440.53,202.46 439.83,201.87 438.71,200.75C437.28,199.31 435.6,197.55 434.07,195.57C432.26,193.24 429.92,190.21 428.71,187.56C427.68,185.3 427.15,182.34 426.86,180.83C426.71,180.08 426.49,179.85 426.65999999999997,179.12C427.05,177.44 429.42,173.32 431.54,171.53C433.51,169.86 435.98,169.4 438.71,168.45C442.13,167.25 446.59,166 450.57,165.2C454.5,164.41 459.67,163.9 462.43,163.66C463.9,163.53 464.44,163.56 465.82,163.51C468.01,163.43 471.23,163.28 474.29,163.25C477.91,163.22 482.19,163.42 486.14,163.4C490.09,163.38 494.11,163.85 498,163.12C502.02,162.37 506.45,160.25 509.86,158.83C512.54,157.71 514.79,156.62 516.89,155.49C518.67,154.53 519.97,153.72 521.71,152.57C523.88,151.14 526.76,149.26 528.82,147.48C530.64,145.91 532.15,144.02 533.57,142.57C534.7,141.41 535.6,140.82 536.65,139.46C538.17,137.48 540.29,134.21 541.35,131.45C542.35,128.86 542.2,125.69 543.01,123.43C543.65,121.62 544.59,120.18 545.43,118.78C546.17,117.54 546.58,116.68 547.74,115.42C549.79,113.21 553.95,109.58 557.53,107.52000000000001C561.09,105.47 565.19,104.14 569.14,103.08Q573.02,102.04 581,101.16" style="stroke-miterlimit: 1; vector-effect: none; fill: none; stroke: rgb(0, 0, 0); stroke-opacity: 1; stroke-width: 2px;"/><path class="openline" d="M0,196.06Q7.95,198.44 11.86,199.72C15.73,200.99 19.45,202.41 23.345,203.715C27.35,205.06 31.74,206.28 35.57,207.67C39.03,208.92 43.29,210.76 45.35,211.6C46.3,211.99 46.46,212.04 47.43,212.47C49.77,213.51 56.88,216.72 59.29,218.07C60.41,218.7 60.59,218.94 61.64,219.62C63.74,220.98 69,224.13 71.14,225.64C72.29,226.45 72.56,226.78 73.69,227.63C75.81,229.22 81.18,232.98 83,234.36C83.78,234.95 83.87,235.02 84.63,235.65C86.54,237.21 91.45,241.23 94.485,244.015C97.28,246.57 100.05,249.33 102.24,251.68C103.98,253.54 105.42,255.42 106.71,256.88C107.67,257.97 108.21,258.51 109.27,259.69C111.05,261.67 114.74,265.64 116.39,267.71C117.37,268.93 117.53,269.7 118.57,270.75C120.12,272.32 123.21,274.2 125.31,275.72C127.13,277.04 128.24,278.52 130.43,279.39C133.46,280.6 138.33,280.56 142.29,281.02C146.24,281.48 150.18,281.97 154.14,282.13C158.09,282.29 162.05,282.17 166,281.96C169.96,281.75 173.91,281.19 177.86,280.85C181.81,280.51 185.76,279.86 189.71,279.92C193.67,279.98 197.66,280.54 201.57,281.19C205.46,281.84 209.24,282.73 213.11,283.81C217.14,284.94 221.69,286.41 225.29,287.87C228.29,289.09 231.13,290.76 233.32,291.76C234.82,292.45 235.54,292.63 237.14,293.41C240.02,294.81 244.94,297.91 248.94,299.79999999999995C252.85,301.65 256.82,303.73 260.86,304.65C264.74,305.53 269.18,304.75 272.71,305.38C275.66,305.91 278.54,306.86 280.68,307.79C282.25,308.47 283.1,309.05 284.57,310.03C286.7,311.46 289.79,314.44 292.02,315.8C293.62,316.78 294.58,317.02 296.43,317.87C299.54,319.3 304.89,321.93 308.99,323.515C312.78,324.98 316.38,325.82 320.14,327.16C324.08,328.56 328.12,330.31 332.1,331.78999999999996C336.03,333.25 339.93,334.62 343.86,335.99C347.8,337.36 351.77,340.05 355.71,340C359.67,339.95 364.89,337.43 367.57,335.66C369.3,334.52 369.66,333.22 371.16,331.83C373.3,329.86 377.99,326.68 379.43,325.23C380.02,324.63 379.91,324.42 380.53,323.82C382.23,322.16 387.54,318.39 391.32000000000005,315.83500000000004C395.26,313.17 399.66,310.56 403.725,308.18C407.55,305.94 412.25,303.47 415,301.92C416.59,301.02 417.24,300.52 418.76,299.77C420.92,298.7 423.85,297.27 426.86,296.35C430.39,295.27 434.74,294.54 438.71,294.02C442.65,293.5 446.63,292.95 450.57,293.21C454.54,293.47 458.9,294.39 462.43,295.61C465.52,296.68 468.55,298.69 470.74,299.77C472.17,300.47 472.84,300.68 474.29,301.49C476.8,302.89 482.25,306.45 484.25,307.79C485.14,308.39 485.28,308.51 486.14,309.13C488.05,310.5 493.26,313.53 495.28,315.8C496.69,317.39 497.1,319.2 498,320.62C498.76,321.82 500.24,322.71 500.27,323.82C500.3,324.97 498.75,326.13 498,327.4C497.18,328.79 495.69,330.17 495.57,331.83C495.42,333.78 496.22,337.13 498,338.44C500.31,340.14 506.92,338.66 509.86,339.02C511.63,339.24 512.45,339.59 514.06,339.85C516.23,340.2 518.89,340.39 521.71,340.83C525.24,341.38 529.62,342.27 533.57,342.99C537.52,343.71 541.47,344.61 545.43,345.17C549.37,345.73 553.38,346.75 557.29,346.37C561.28,345.98 566.12,344.09 569.14,342.75C571.18,341.84 572.44,341.27 573.99,339.85C576.04,337.97 578.57,333.71 579.76,331.83Q580.37,330.87 581,329.57" style="stroke-miterlimit: 1; vector-effect: none; fill: none; stroke: rgb(0, 0, 0); stroke-opacity: 1; stroke-width: 2px;"/><path class="openline" d="M581,153.7Q579.31,154.6 578.14,155.49C575.93,157.17 571.48,160.74 569.2049999999999,163.635C567.25,166.13 564.92,168.88 564.9,171.53C564.88,174.19 567.23,177.02 569.13,179.55C571.27,182.4 575.19,185.63 577.43,187.56Q578.83,188.77 581,190.31" style="stroke-miterlimit: 1; vector-effect: none; fill: none; stroke: rgb(0, 0, 0); stroke-opacity: 1; stroke-width: 2px;"/><path class="openline" d="M0,88.95Q0.97,90.33 1.71,91.37C3.06,93.27 5.72,96.84 7.49,99.39C9.07,101.67 10.86,104.54 11.86,105.93C12.35,106.61 12.51,106.7 13,107.4C14.1,108.99 16.85,112.65 17.99,115.42C19.05,118 20.55,120.95 19.82,123.43C18.97,126.34 14.89,129.14 11.739999999999998,131.345Q8.36,133.71 0,136.95" style="stroke-miterlimit: 1; vector-effect: none; fill: none; stroke: rgb(0, 0, 0); stroke-opacity: 1; stroke-width: 2px;"/><path class="openline" d="M581,36.76Q573.08,37.53 569.14,38.09C565.18,38.65 561.27,39.29 557.29,40.1C553.18,40.94 547.28,40.78 544.855,43.06C542.87,44.93 542,49.08 542.37,51.3C542.66,53.03 544.54,54.15 545.43,55.55C546.23,56.82 546.6,57.85 547.51,59.31C548.89,61.51 551.51,64.6 553.15,67.33C554.72,69.95 557.07,72.64 557.21,75.34C557.35,77.98 555.92,80.92 554.17,83.36C552.09,86.27 548.23,89.06 544.785,91.09C541.36,93.11 537.41,95.17 533.57,95.53C529.72,95.89 523.82,94.38 521.71,93.22C520.74,92.69 520.74,92.21 519.97,91.37C518.37,89.64 514.51,85.67 512.71,83.36C511.47,81.77 510.62,80.51 509.86,79.1C509.18,77.84 508.71,76.86 508.29,75.34C507.7,73.2 507.25,70.01 507.14,67.33C507.03,64.66 507.33,61.98 507.62,59.31C507.91,56.63 508.47,53.8 508.86,51.3C509.21,49.1 509.43,46.51 509.86,45.08C510.1,44.28 510.39,44.11 510.67,43.28C511.25,41.58 513.13,37.06 512.56,35.27C512.18,34.09 511.17,33.7 509.86,32.88C507.38,31.34 501.52,28.92 498,28.03Q495.36,27.36 490.82,27.25" style="stroke-miterlimit: 1; vector-effect: none; fill: none; stroke: rgb(0, 0, 0); stroke-opacity: 1; stroke-width: 2px;"/><path class="openline" d="M6.71,27.25Q4.45,32.61 3.33,35.27Q2.22,37.91 0,43.17" style="stroke-miterlimit: 1; vector-effect: none; fill: none; stroke: rgb(0, 0, 0); stroke-opacity: 1; stroke-width: 2px;"/><path class="closedline" d="M237.14,244.85C235.98,244.39 235.75,244.19 234.66,243.66C232.54,242.63 227.92,240.59 225.29,239.09C223.25,237.93 221.85,237 220.04,235.65C217.91,234.06 215.06,231.51 213.43,230C212.42,229.06 211.51,228.79 211.05,227.63C210.34,225.84 210.52,221.28 211.3,219.62C211.76,218.63 212.48,218.52 213.43,217.72C215.19,216.24 218.94,213.1 221.17,211.6C222.71,210.56 223.52,210.15 225.29,209.26C228.3,207.75 233.68,205.21 237.785,203.765C241.57,202.43 245.17,200.86 249,200.75C252.96,200.64 257.83,201.4 261.185,203.3C264.39,205.11 266.86,208.94 268.88,211.6C270.51,213.74 271.89,216.35 272.71,217.81C273.14,218.58 273.25,218.79 273.63,219.62C274.41,221.33 275.79,224.96 276.91,227.63C278.04,230.31 279.61,232.93 280.38,235.65C281.12,238.27 282.58,241.57 281.54,243.66C280.38,246 275.98,247.5 272.71,248.52C269.15,249.63 264.81,249.67 260.86,249.71C256.91,249.75 252.91,249.54 249,248.75C245,247.94 239.6,245.84 237.14,244.85Z" style="stroke-miterlimit: 1; vector-effect: none; fill: none; stroke: rgb(0, 0, 0); stroke-opacity: 1; stroke-width: 2px;"/><path class="closedline" d="M379.43,139.22C376.08,139.31 370.36,134.49 369,131.45C367.93,129.06 368.23,125.28 369.71,123.43C371.38,121.35 376.74,120.03 379.43,120.33C381.51,120.56 383.23,121.87 384.7,123.43C386.48,125.33 389.29,128.98 388.78,131.45C388.19,134.32 382.67,139.13 379.43,139.22Z" style="stroke-miterlimit: 1; vector-effect: none; fill: none; stroke: rgb(0, 0, 0); stroke-opacity: 1; stroke-width: 2px;"/></g><g class="contourlevel"><path class="openline" d="M0,218.46Q1.46,219.02 2.54,219.62C4.71,220.83 9.7,224.4 11.86,225.85C13.02,226.62 13.52,226.72 14.52,227.63C16.31,229.27 19.39,233.1 20.98,235.65C22.24,237.66 22.93,239.98 23.71,241.44C24.2,242.37 24.26,242.78 25.03,243.66C26.77,245.64 31.54,249.99 35.345,251.755C39.03,253.47 43.42,253.06 47.43,254.27C51.62,255.53 56.15,257.01 59.93,259.265C63.67,261.5 68.41,266.01 70.04,267.71C70.64,268.34 70.69,268.46 71.14,269.13C72.07,270.5 74.05,273.34 75,275.72C75.99,278.19 76.54,281.05 76.87,283.74C77.2,286.4 77.04,289.09 76.99,291.76C76.94,294.43 76.39,297.11 76.54,299.77C76.69,302.45 77.03,305.18 77.88,307.79C78.77,310.53 80.89,314.3 81.89,315.8C82.32,316.45 82.49,316.49 83,317.09C84.16,318.45 86.61,321.98 88.69,323.82C90.59,325.51 92.69,326.58 94.86,327.88C97.17,329.26 100.01,330.76 102.17,331.83C103.85,332.66 104.81,333.18 106.71,333.88C109.7,334.98 114.58,336.63 118.57,337.29C122.49,337.94 126.51,338.3 130.43,337.85C134.42,337.4 138.8,335.63 142.29,334.52C145.09,333.63 147.65,332.72 149.79,331.83C151.46,331.14 152.45,330.71 154.14,329.78C156.71,328.37 161.4,325.19 163.52,323.82C164.62,323.11 164.83,322.84 166,322.18C168.45,320.78 174.83,317.39 177.86,316.45C179.61,315.91 180.55,316.02 182.19,315.8C184.35,315.52 186.9,315.02 189.71,314.95C193.3,314.86 197.99,315.03 201.97,315.70000000000005C205.89,316.36 209.76,317.51 213.43,318.88C217.05,320.23 221.99,322.83 223.86,323.82C224.57,324.19 224.62,324.22 225.29,324.66C227.11,325.86 232.93,330.45 235.02,331.83C235.96,332.46 236.16,332.49 237.14,333.09C239.44,334.48 244.67,337.89 248.58499999999998,340.14C252.57,342.44 257.66,345.51 260.86,346.73C262.76,347.45 263.87,347.47 265.62,347.86C267.75,348.33 270.03,348.89 272.71,349.32C276.15,349.87 280.63,350.12 284.57,350.71C288.53,351.31 292.47,352.06 296.43,352.9C300.45,353.76 304.51,354.93 308.51,355.825C312.42,356.7 316.25,357.39 320.14,358.22C324.08,359.06 328.13,359.86 332,360.86C335.76,361.83 339.22,363.01 343.03,364.105C347.11,365.27 351.55,366.49 355.71,367.65C359.73,368.77 364.62,370.18 367.57,370.93C369.31,371.38 370.14,371.57 371.75,371.91C373.92,372.37 376.58,372.91 379.43,373.34C382.95,373.87 387.34,374.3 391.29,374.73C395.24,375.16 399.19,375.49 403.14,375.94C407.1,376.39 411.04,376.98 415,377.44C418.95,377.9 422.9,378.43 426.86,378.71C430.81,378.99 434.76,379.17 438.71,379.1C442.66,379.03 446.64,378.85 450.57,378.29C454.54,377.72 458.48,376.74 462.43,375.7C466.45,374.64 470.49,373.21 474.47,371.96000000000004C478.39,370.73 482.21,369.34 486.14,368.26C490.06,367.19 494.02,366.23 498,365.5C501.97,364.77 506.03,364.24 510.015,363.895C513.93,363.56 518.06,363.41 521.71,363.43C524.92,363.45 528.6,363.79 530.76,363.89C531.96,363.95 532.31,363.92 533.57,364.02C536.16,364.23 541.48,364.83 545.43,365.4C549.39,365.97 553.35,366.69 557.29,367.46C561.25,368.23 565.63,369.21 569.14,370.02C571.97,370.68 574.6,371.41 576.77,371.91Q578.38,372.28 581,372.82" style="stroke-miterlimit: 1; vector-effect: none; fill: none; stroke: rgb(0, 0, 0); stroke-opacity: 1; stroke-width: 2px;"/><path class="closedline" d="M450.57,332.53C449.74,332.59 448.62,332.52 447.66,331.83C445.96,330.6 442.24,326.12 442.68,323.82C443.12,321.47 447.52,318.5 450.57,317.95C453.99,317.33 460.26,319.95 462.43,321.41C463.51,322.14 464.36,323.02 464.35,323.82C464.34,324.61 463.44,325.32 462.43,326.16C460.46,327.81 454.27,330.87 452.28,331.83C451.49,332.21 451.22,332.48 450.57,332.53Z" style="stroke-miterlimit: 1; vector-effect: none; fill: none; stroke: rgb(0, 0, 0); stroke-opacity: 1; stroke-width: 2px;"/></g><g class="contourlevel"><path class="openline" d="M0,325.67Q6.24,330.4 8.46,331.83C9.82,332.7 10.36,332.99 11.86,333.75C14.59,335.13 21.34,338.1 23.71,339.06C24.71,339.47 24.88,339.58 25.87,339.85C27.93,340.41 32.16,341.16 35.57,341.63C39.31,342.15 43.48,342.28 47.43,342.73C51.39,343.18 55.65,343.37 59.29,344.31C62.58,345.16 66.23,347.06 68.39,347.86C69.57,348.3 69.92,348.31 71.14,348.82C73.73,349.9 80.43,353.33 83,354.57C84.24,355.16 84.57,355.34 85.76,355.88C87.91,356.86 91.65,358.56 94.86,359.87C98.39,361.31 102.23,362.87 106.10499999999999,364.11C110.12,365.39 114.44,366.59 118.57,367.4C122.55,368.18 126.47,368.88 130.43,368.92C134.38,368.96 138.36,368.44 142.29,367.64C146.33,366.81 150.41,365.48 154.33999999999997,363.97C158.31,362.44 162.29,359.91 166,358.52C169.19,357.32 173.03,356.5 175.18,355.88C176.34,355.54 176.66,355.49 177.86,355.1C180.41,354.28 185.7,351.53 189.71,350.91C193.61,350.3 197.66,350.62 201.57,351.28C205.57,351.95 210.93,354.14 213.43,354.97C214.6,355.36 214.87,355.47 215.99,355.88C218.13,356.66 222.32,358.04 225.29,359.4C228.17,360.72 231.35,362.85 233.56,363.89C234.98,364.55 235.59,364.73 237.14,365.32C239.94,366.39 245.3,368.48 249,369.62C252.17,370.6 255.79,371.41 257.96,371.91C259.19,372.19 259.56,372.3 260.86,372.5C263.47,372.9 268.75,373.46 272.71,373.75C276.66,374.04 280.62,374.11 284.57,374.23C288.52,374.35 292.48,374.36 296.43,374.49C300.38,374.63 304.34,374.74 308.29,375.04C312.25,375.35 316.2,375.79 320.14,376.32C324.1,376.85 328.5,377.55 332,378.22C334.81,378.76 337.39,379.47 339.56,379.92C341.19,380.26 342.07,380.39 343.86,380.75C346.83,381.34 351.76,382.39 355.71,383.17C359.66,383.95 363.61,384.82 367.57,385.43C371.51,386.03 375.47,386.44 379.43,386.81C383.38,387.18 388.43,387.44 391.29,387.65C392.91,387.77 393.59,387.84 395.09,387.94C397.28,388.09 400.2,388.32 403.14,388.44C406.71,388.58 411.05,388.51 415,388.66C418.95,388.81 422.91,389.13 426.86,389.35C430.81,389.57 434.76,389.82 438.71,389.96C442.66,390.1 446.62,390.22 450.57,390.2C454.52,390.18 458.45,390.17 462.43,389.82C466.49,389.46 470.7,388.88 474.69,388.03C478.6,387.2 482.28,385.8 486.14,384.79C490.05,383.77 494,382.76 498,381.95C502.03,381.14 506.19,380.4 510.21000000000004,379.94C514.09,379.5 517.85,379.32 521.71,379.2C525.63,379.08 530.12,379.04 533.57,379.21C536.26,379.34 538.58,379.72 540.72,379.92C542.45,380.08 543.51,380.12 545.43,380.34C548.49,380.69 553.34,381.39 557.29,382.02C561.25,382.66 565.19,383.4 569.14,384.15Q573.1,384.91 581,386.55" style="stroke-miterlimit: 1; vector-effect: none; fill: none; stroke: rgb(0, 0, 0); stroke-opacity: 1; stroke-width: 2px;"/></g><g class="contourlevel"><path class="openline" d="M0,370.2Q7.9,368.95 11.86,368.41C15.81,367.87 19.75,367.34 23.71,366.98C27.66,366.62 31.61,366.31 35.57,366.23C39.52,366.15 43.49,366.17 47.43,366.51C51.39,366.85 55.39,367.39 59.29,368.3C63.22,369.21 67.01,370.61 70.89500000000001,371.99C74.91,373.41 79.4,375.3 83,376.73C85.9,377.89 88.67,379.02 90.85,379.92C92.41,380.57 93.17,380.91 94.86,381.61C97.76,382.81 103.73,385.29 106.71,386.42C108.49,387.1 109.38,387.37 111.01,387.94C113.18,388.7 115.73,389.91 118.57,390.58C122.04,391.4 126.48,392.16 130.43,392.11C134.39,392.06 138.79,391.07 142.29,390.27C145.15,389.62 147.79,388.59 149.96,387.94C151.56,387.46 152.39,387.23 154.14,386.71C157.09,385.83 162.06,384.25 166,383.1C169.88,381.96 173.66,380.73 177.59500000000003,379.845C181.57,378.95 185.68,378.18 189.71,377.78C193.67,377.38 197.62,377.28 201.57,377.42C205.53,377.56 210.28,378.08 213.43,378.62C215.55,378.99 216.83,379.49 218.69,379.92C220.76,380.4 222.78,380.74 225.29,381.32C228.67,382.1 233.19,383.29 237.14,384.26C241.09,385.23 245.79,386.49 249,387.12C251.16,387.54 252.57,387.67 254.46,387.94C256.51,388.23 258.39,388.59 260.86,388.8C264.2,389.08 268.76,389.16 272.71,389.19C276.66,389.22 280.62,388.99 284.57,388.99C288.52,388.99 292.48,389.04 296.43,389.18C300.38,389.32 304.34,389.71 308.29,389.85C312.24,389.99 316.19,389.83 320.14,390.02C324.1,390.21 328.06,390.49 332,390.97C335.96,391.45 339.91,392.24 343.86,392.89C347.81,393.54 351.84,394.33 355.71,394.86C359.41,395.37 362.81,395.72 366.59000000000003,396.03999999999996C370.69,396.39 375.23,396.61 379.43,396.84C383.46,397.06 387.34,397.23 391.29,397.42C395.24,397.61 399.19,397.82 403.14,397.99C407.09,398.16 411.05,398.34 415,398.43C418.95,398.52 422.91,398.44 426.86,398.53C430.81,398.62 434.76,398.8 438.71,398.95C442.66,399.1 446.62,399.34 450.57,399.44C454.52,399.54 458.48,399.61 462.43,399.53C466.38,399.45 470.34,399.28 474.29,398.95C478.25,398.62 482.55,398.11 486.14,397.55C489.15,397.08 492.21,396.41 494.4,395.95C495.85,395.64 496.45,395.43 498,395.12C500.8,394.55 505.89,393.49 509.86,393.05C513.8,392.61 517.76,392.58 521.71,392.48C525.66,392.38 529.62,392.41 533.57,392.45C537.52,392.49 541.48,392.54 545.43,392.75C549.39,392.96 553.35,393.27 557.29,393.73C561.25,394.19 566.67,395.12 569.14,395.52C570.27,395.7 570.52,395.77 571.61,395.95Q573.73,396.31 581,397.46" style="stroke-miterlimit: 1; vector-effect: none; fill: none; stroke: rgb(0, 0, 0); stroke-opacity: 1; stroke-width: 2px;"/></g><g class="contourlevel"><path class="openline" d="M0,385.77Q7.91,385.03 11.86,384.73C15.81,384.44 19.76,384.11 23.71,384C27.66,383.89 31.63,383.78 35.57,384.06C39.53,384.34 43.89,384.96 47.43,385.7C50.37,386.31 53.2,387.31 55.38,387.94C56.91,388.39 57.66,388.52 59.29,389.11C62.19,390.16 68.38,392.89 71.14,394.18C72.66,394.89 73.21,395.22 74.61,395.95C76.8,397.1 80.31,399.07 83,400.46C85.45,401.72 87.95,402.9 90.08,403.97C91.83,404.85 92.88,405.52 94.86,406.42C97.9,407.8 103.82,410.24 106.71,411.13C108.32,411.62 109.04,411.65 110.56,411.98C112.75,412.46 115.62,413.32 118.57,413.72C122.12,414.21 126.45,414.65 130.43,414.41C134.54,414.16 138.83,413.11 142.85,412.155C146.73,411.23 150.34,410.02 154.14,408.81C158.06,407.56 163.67,405.6 166,404.76C166.98,404.41 167.13,404.33 168.08,403.97C170.14,403.19 174.42,401.44 177.86,400.29C181.6,399.04 185.76,397.53 189.71,396.8C193.51,396.1 197.24,395.91 201.115,395.9175C205.14,395.92 209.37,396.53 213.43,396.9C217.42,397.26 221.34,397.68 225.29,398.11C229.24,398.54 233.2,398.93 237.14,399.49C241.1,400.05 245.04,400.95 249,401.49C252.94,402.03 256.9,402.54 260.86,402.72C264.81,402.9 268.76,402.58 272.71,402.6C276.66,402.62 280.62,402.87 284.57,402.87C288.52,402.87 292.48,402.76 296.43,402.6C300.38,402.44 304.34,402.11 308.29,401.92C312.24,401.74 316.19,401.47 320.14,401.49C324.09,401.51 328.05,401.71 332,402.03C335.96,402.35 340.52,403.08 343.86,403.42C346.29,403.67 348.13,403.81 350.16,403.97C352.07,404.12 353.51,404.23 355.71,404.37C358.92,404.57 363.62,404.78 367.57,404.99C371.52,405.2 375.48,405.45 379.43,405.64C383.38,405.83 387.34,405.97 391.29,406.12C395.24,406.27 399.19,406.39 403.14,406.52C407.09,406.65 411.05,406.79 415,406.89C418.95,406.99 422.91,407.07 426.86,407.13C430.81,407.19 434.76,407.18 438.71,407.27C442.66,407.36 446.62,407.57 450.57,407.68C454.52,407.78 458.48,407.89 462.43,407.9C466.38,407.91 470.34,407.82 474.29,407.73C478.24,407.64 482.19,407.6 486.14,407.38C490.1,407.16 494.05,406.83 498,406.41C501.96,405.99 505.9,405.2 509.86,404.86C513.8,404.52 517.76,404.44 521.71,404.35C525.66,404.26 529.62,404.3 533.57,404.33C537.52,404.36 541.48,404.43 545.43,404.53C549.38,404.63 553.34,404.72 557.29,404.94C561.24,405.16 565.19,405.45 569.14,405.84Q573.1,406.23 581,407.3" style="stroke-miterlimit: 1; vector-effect: none; fill: none; stroke: rgb(0, 0, 0); stroke-opacity: 1; stroke-width: 2px;"/></g><g class="contourlevel"><path class="openline" d="M170.63,420Q175.13,418.12 177.86,417.16C181.31,415.94 185.75,414.3 189.71,413.43C193.53,412.59 198.53,412.09 201.195,411.935C202.61,411.85 203.1,411.95 204.46,411.98C206.71,412.03 210.23,412.07 213.43,412.26C217.11,412.48 221.34,412.94 225.29,413.32C229.24,413.71 233.19,414.21 237.14,414.57C241.09,414.93 245.05,415.24 249,415.5C252.95,415.76 256.91,416.08 260.86,416.13C264.81,416.18 268.76,416.04 272.71,415.83C276.67,415.62 280.62,415.25 284.57,414.89C288.53,414.53 292.48,414.07 296.43,413.68C300.38,413.29 304.57,412.85 308.29,412.56C311.59,412.3 315.54,412.11 317.66,411.98C318.75,411.91 319.06,411.85 320.14,411.83C322.19,411.79 326.85,411.94 329.02,411.98C330.28,412 330.68,412 332,412.03C334.64,412.1 339.91,412.3 343.86,412.43C347.81,412.56 351.76,412.68 355.71,412.83C359.66,412.98 363.62,413.17 367.57,413.35C371.52,413.53 375.48,413.75 379.43,413.91C383.38,414.07 387.34,414.2 391.29,414.31C395.24,414.42 399.19,414.51 403.14,414.59C407.09,414.68 411.05,414.75 415,414.82C418.95,414.89 422.91,414.96 426.86,415.03C430.81,415.1 434.76,415.16 438.71,415.23C442.66,415.3 446.62,415.39 450.57,415.47C454.52,415.55 458.48,415.66 462.43,415.73C466.38,415.8 470.34,415.83 474.29,415.87C478.24,415.91 482.19,415.96 486.14,415.97C490.09,415.98 494.05,416.03 498,415.95C501.95,415.87 505.91,415.65 509.86,415.51C513.81,415.38 517.76,415.21 521.71,415.14C525.66,415.07 529.62,415.07 533.57,415.08C537.52,415.09 541.48,415.12 545.43,415.19C549.38,415.26 553.34,415.35 557.29,415.48C561.24,415.61 565.19,415.76 569.14,415.98Q573.09,416.2 581,416.82" style="stroke-miterlimit: 1; vector-effect: none; fill: none; stroke: rgb(0, 0, 0); stroke-opacity: 1; stroke-width: 2px;"/><path class="openline" d="M0,397.88Q7.91,397.67 11.86,397.72C15.81,397.77 19.77,397.73 23.71,398.16C27.68,398.59 31.63,399.36 35.57,400.3C39.59,401.26 43.65,402.52 47.605000000000004,403.905C51.56,405.29 55.99,407.12 59.29,408.63C61.8,409.78 63.72,410.89 65.77,411.98C67.65,412.98 69.13,413.79 71.14,414.91Q73.74,416.36 80.06,420" style="stroke-miterlimit: 1; vector-effect: none; fill: none; stroke: rgb(0, 0, 0); stroke-opacity: 1; stroke-width: 2px;"/></g><g class="contourlevel"><path class="openline" d="M0,408.96Q8.15,409.5 11.86,410.05C15.19,410.54 19.16,411.52 21.27,411.98C22.35,412.22 22.6,412.25 23.71,412.55C26.18,413.22 31.89,414.91 35.57,416.23Q38.86,417.41 44.77,420" style="stroke-miterlimit: 1; vector-effect: none; fill: none; stroke: rgb(0, 0, 0); stroke-opacity: 1; stroke-width: 2px;"/></g></g></g></g><g class="scatterlayer mlayer"><g class="trace scatter trace55f734" style="stroke-miterlimit: 2; opacity: 1;"><g class="fills"/><g class="errorbars"/><g class="lines"/><g class="points"><path class="point" transform="translate(116.2,49.34)" d="M5,0A5,5 0 1,1 0,-5A5,5 0 0,1 5,0Z" style="opacity: 1; stroke-width: 0px; fill: rgb(255, 0, 0); fill-opacity: 1;"/></g><g class="text"><g class="textpoint" transform="translate(0,16.25)"><text x="116.2" y="49.34" text-anchor="middle" style="font-family: 'Open Sans', verdana, arial, sans-serif; font-size: 12px; fill: rgb(255, 0, 0); fill-opacity: 1; white-space: pre;"><tspan class="line" dy="0em" x="116.2" y="49.34"> DE (9.00, 24.00) </tspan><tspan class="line" dy="1.3em" x="116.2" y="49.34"> val = 0.0068691259099259395</tspan></text></g></g></g><g class="trace scatter trace5cfcbc" style="stroke-miterlimit: 2; opacity: 1;"><g class="fills"/><g class="errorbars"/><g class="lines"/><g class="points"><path class="point" transform="translate(377.65,27.25)" d="M5,0A5,5 0 1,1 0,-5A5,5 0 0,1 5,0Z" style="opacity: 1; stroke-width: 0px; fill: rgb(255, 0, 0); fill-opacity: 1;"/></g><g class="text"><g class="textpoint" transform="translate(0,16.25)"><text x="377.65" y="27.25" text-anchor="middle" style="font-family: 'Open Sans', verdana, arial, sans-serif; font-size: 12px; fill: rgb(255, 0, 0); fill-opacity: 1; white-space: pre;"><tspan class="line" dy="0em" x="377.65" y="27.25"> BFGS and SLSQP (18.00, 25.00) </tspan><tspan class="line" dy="1.3em" x="377.65" y="27.25"> val = 0.019373042925353013</tspan></text></g></g></g></g></g></g><path class="xlines-above crisp" d="M0,0" style="fill: none;"/><path class="ylines-above crisp" d="M0,0" style="fill: none;"/><g class="overlines-above"/><g class="xaxislayer-above"><g class="xtick"><text text-anchor="middle" x="0" y="533" transform="translate(80,0)" style="font-family: 'Open Sans', verdana, arial, sans-serif; font-size: 12px; fill: rgb(42, 63, 95); fill-opacity: 1; white-space: pre; opacity: 1;">5</text></g><g class="xtick"><text text-anchor="middle" x="0" y="533" style="font-family: 'Open Sans', verdana, arial, sans-serif; font-size: 12px; fill: rgb(42, 63, 95); fill-opacity: 1; white-space: pre; opacity: 1;" transform="translate(225.25,0)">10</text></g><g class="xtick"><text text-anchor="middle" x="0" y="533" style="font-family: 'Open Sans', verdana, arial, sans-serif; font-size: 12px; fill: rgb(42, 63, 95); fill-opacity: 1; white-space: pre; opacity: 1;" transform="translate(370.5,0)">15</text></g><g class="xtick"><text text-anchor="middle" x="0" y="533" style="font-family: 'Open Sans', verdana, arial, sans-serif; font-size: 12px; fill: rgb(42, 63, 95); fill-opacity: 1; white-space: pre; opacity: 1;" transform="translate(515.75,0)">20</text></g><g class="xtick"><text text-anchor="middle" x="0" y="533" style="font-family: 'Open Sans', verdana, arial, sans-serif; font-size: 12px; fill: rgb(42, 63, 95); fill-opacity: 1; white-space: pre; opacity: 1;" transform="translate(661,0)">25</text></g></g><g class="yaxislayer-above"><g class="ytick"><text text-anchor="end" x="79" y="4.199999999999999" transform="translate(0,502.81)" style="font-family: 'Open Sans', verdana, arial, sans-serif; font-size: 12px; fill: rgb(42, 63, 95); fill-opacity: 1; white-space: pre; opacity: 1;">8</text></g><g class="ytick"><text text-anchor="end" x="79" y="4.199999999999999" style="font-family: 'Open Sans', verdana, arial, sans-serif; font-size: 12px; fill: rgb(42, 63, 95); fill-opacity: 1; white-space: pre; opacity: 1;" transform="translate(0,458.63)">10</text></g><g class="ytick"><text text-anchor="end" x="79" y="4.199999999999999" style="font-family: 'Open Sans', verdana, arial, sans-serif; font-size: 12px; fill: rgb(42, 63, 95); fill-opacity: 1; white-space: pre; opacity: 1;" transform="translate(0,414.44)">12</text></g><g class="ytick"><text text-anchor="end" x="79" y="4.199999999999999" style="font-family: 'Open Sans', verdana, arial, sans-serif; font-size: 12px; fill: rgb(42, 63, 95); fill-opacity: 1; white-space: pre; opacity: 1;" transform="translate(0,370.26)">14</text></g><g class="ytick"><text text-anchor="end" x="79" y="4.199999999999999" style="font-family: 'Open Sans', verdana, arial, sans-serif; font-size: 12px; fill: rgb(42, 63, 95); fill-opacity: 1; white-space: pre; opacity: 1;" transform="translate(0,326.08000000000004)">16</text></g><g class="ytick"><text text-anchor="end" x="79" y="4.199999999999999" style="font-family: 'Open Sans', verdana, arial, sans-serif; font-size: 12px; fill: rgb(42, 63, 95); fill-opacity: 1; white-space: pre; opacity: 1;" transform="translate(0,281.89)">18</text></g><g class="ytick"><text text-anchor="end" x="79" y="4.199999999999999" style="font-family: 'Open Sans', verdana, arial, sans-serif; font-size: 12px; fill: rgb(42, 63, 95); fill-opacity: 1; white-space: pre; opacity: 1;" transform="translate(0,237.71)">20</text></g><g class="ytick"><text text-anchor="end" x="79" y="4.199999999999999" style="font-family: 'Open Sans', verdana, arial, sans-serif; font-size: 12px; fill: rgb(42, 63, 95); fill-opacity: 1; white-space: pre; opacity: 1;" transform="translate(0,193.53)">22</text></g><g class="ytick"><text text-anchor="end" x="79" y="4.199999999999999" style="font-family: 'Open Sans', verdana, arial, sans-serif; font-size: 12px; fill: rgb(42, 63, 95); fill-opacity: 1; white-space: pre; opacity: 1;" transform="translate(0,149.34)">24</text></g><g class="ytick"><text text-anchor="end" x="79" y="4.199999999999999" style="font-family: 'Open Sans', verdana, arial, sans-serif; font-size: 12px; fill: rgb(42, 63, 95); fill-opacity: 1; white-space: pre; opacity: 1;" transform="translate(0,105.16)">26</text></g></g><g class="overaxes-above"/></g></g><g class="polarlayer"/><g class="smithlayer"/><g class="ternarylayer"/><g class="geolayer"/><g class="funnelarealayer"/><g class="pielayer"/><g class="iciclelayer"/><g class="treemaplayer"/><g class="sunburstlayer"/><g class="glimages"/><defs id="topdefs-83362f"><g class="clips"/><clipPath id="legend83362f"><rect width="115" height="48" x="0" y="0"/></clipPath></defs><g class="layer-above"><g class="imagelayer"/><g class="shapelayer"/></g><g class="infolayer"><g class="legend" pointer-events="all" transform="translate(672.62,100)"><rect class="bg" shape-rendering="crispEdges" width="115" height="48" x="0" y="0" style="stroke: rgb(68, 68, 68); stroke-opacity: 1; fill: rgb(255, 255, 255); fill-opacity: 1; stroke-width: 0px;"/><g class="scrollbox" transform="" clip-path="url(#legend83362f)"><g class="groups"><g class="traces" transform="translate(0,14.5)" style="opacity: 1;"><text class="legendtext" text-anchor="start" x="40" y="4.680000000000001" style="font-family: 'Open Sans', verdana, arial, sans-serif; font-size: 12px; fill: rgb(42, 63, 95); fill-opacity: 1; white-space: pre;">Data Points</text><g class="layers" style="opacity: 1;"><g class="legendfill"/><g class="legendlines"/><g class="legendsymbols"><g class="legendpoints"><path class="scatterpts" transform="translate(20,0)" d="M5,0A5,5 0 1,1 0,-5A5,5 0 0,1 5,0Z" style="opacity: 1; stroke-width: 0px; fill: rgb(255, 0, 0); fill-opacity: 1;"/></g></g></g><rect class="legendtoggle" x="0" y="-9.5" width="109.453125" height="19" style="fill: rgb(0, 0, 0); fill-opacity: 0;"/></g><g class="traces" transform="translate(0,33.5)" style="opacity: 1;"><text class="legendtext" text-anchor="start" x="40" y="4.680000000000001" style="font-family: 'Open Sans', verdana, arial, sans-serif; font-size: 12px; fill: rgb(42, 63, 95); fill-opacity: 1; white-space: pre;">Data Points</text><g class="layers" style="opacity: 1;"><g class="legendfill"/><g class="legendlines"/><g class="legendsymbols"><g class="legendpoints"><path class="scatterpts" transform="translate(20,0)" d="M5,0A5,5 0 1,1 0,-5A5,5 0 0,1 5,0Z" style="opacity: 1; stroke-width: 0px; fill: rgb(255, 0, 0); fill-opacity: 1;"/></g></g></g><rect class="legendtoggle" x="0" y="-9.5" width="109.453125" height="19" style="fill: rgb(0, 0, 0); fill-opacity: 0;"/></g></g></g><rect class="scrollbar" rx="20" ry="3" width="0" height="0" x="0" y="0" style="fill: rgb(128, 139, 164); fill-opacity: 1;"/></g><g class="g-gtitle"><text class="gtitle" x="40" y="50" text-anchor="start" dy="0em" style="opacity: 1; font-family: 'Open Sans', verdana, arial, sans-serif; font-size: 17px; fill: rgb(42, 63, 95); fill-opacity: 1; white-space: pre;">2D Heatmap</text></g><g class="g-xtitle"><text class="xtitle" x="370.5" y="560.3" text-anchor="middle" style="opacity: 1; font-family: 'Open Sans', verdana, arial, sans-serif; font-size: 14px; fill: rgb(42, 63, 95); fill-opacity: 1; white-space: pre;">X axis</text></g><g class="g-ytitle"><text class="ytitle" transform="rotate(-90,44.334375,310)" x="44.334375" y="310" text-anchor="middle" style="opacity: 1; font-family: 'Open Sans', verdana, arial, sans-serif; font-size: 14px; fill: rgb(42, 63, 95); fill-opacity: 1; white-space: pre;">Y axis</text></g></g></svg>