<?xml version="1.0" encoding="utf-8" standalone="no"?>
<!DOCTYPE svg PUBLIC "-//W3C//DTD SVG 1.1//EN"
  "http://www.w3.org/Graphics/SVG/1.1/DTD/svg11.dtd">
<svg xmlns:xlink="http://www.w3.org/1999/xlink" width="432pt" height="288pt" viewBox="0 0 432 288" xmlns="http://www.w3.org/2000/svg" version="1.1">
 <metadata>
  <rdf:RDF xmlns:dc="http://purl.org/dc/elements/1.1/" xmlns:cc="http://creativecommons.org/ns#" xmlns:rdf="http://www.w3.org/1999/02/22-rdf-syntax-ns#">
   <cc:Work>
    <dc:type rdf:resource="http://purl.org/dc/dcmitype/StillImage"/>
    <dc:date>2024-10-22T03:08:35.509900</dc:date>
    <dc:format>image/svg+xml</dc:format>
    <dc:creator>
     <cc:Agent>
      <dc:title>Matplotlib v3.8.2, https://matplotlib.org/</dc:title>
     </cc:Agent>
    </dc:creator>
   </cc:Work>
  </rdf:RDF>
 </metadata>
 <defs>
  <style type="text/css">*{stroke-linejoin: round; stroke-linecap: butt}</style>
 </defs>
 <g id="figure_1">
  <g id="patch_1">
   <path d="M 0 288 
L 432 288 
L 432 0 
L 0 0 
z
" style="fill: #ffffff"/>
  </g>
  <g id="axes_1">
   <g id="patch_2">
    <path d="M 54.038 242.44 
L 390.562 242.44 
L 390.562 13.598805 
L 54.038 13.598805 
z
" style="fill: #ffffff"/>
   </g>
   <g id="matplotlib.axis_1">
    <g id="xtick_1">
     <g id="line2d_1">
      <defs>
       <path id="m6d0ff96bc9" d="M 0 0 
L 0 3.5 
" style="stroke: #000000; stroke-width: 0.8"/>
      </defs>
      <g>
       <use xlink:href="#m6d0ff96bc9" x="78.075429" y="242.44" style="stroke: #000000; stroke-width: 0.8"/>
      </g>
     </g>
     <g id="text_1">
      <!-- 5 -->
      <g transform="translate(74.894179 257.038437) scale(0.1 -0.1)">
       <defs>
        <path id="DejaVuSans-35" d="M 691 4666 
L 3169 4666 
L 3169 4134 
L 1269 4134 
L 1269 2991 
Q 1406 3038 1543 3061 
Q 1681 3084 1819 3084 
Q 2600 3084 3056 2656 
Q 3513 2228 3513 1497 
Q 3513 744 3044 326 
Q 2575 -91 1722 -91 
Q 1428 -91 1123 -41 
Q 819 9 494 109 
L 494 744 
Q 775 591 1075 516 
Q 1375 441 1709 441 
Q 2250 441 2565 725 
Q 2881 1009 2881 1497 
Q 2881 1984 2565 2268 
Q 2250 2553 1709 2553 
Q 1456 2553 1204 2497 
Q 953 2441 691 2322 
L 691 4666 
z
" transform="scale(0.015625)"/>
       </defs>
       <use xlink:href="#DejaVuSans-35"/>
      </g>
     </g>
    </g>
    <g id="xtick_2">
     <g id="line2d_2">
      <g>
       <use xlink:href="#m6d0ff96bc9" x="138.169" y="242.44" style="stroke: #000000; stroke-width: 0.8"/>
      </g>
     </g>
     <g id="text_2">
      <!-- 10 -->
      <g transform="translate(131.8065 257.038437) scale(0.1 -0.1)">
       <defs>
        <path id="DejaVuSans-31" d="M 794 531 
L 1825 531 
L 1825 4091 
L 703 3866 
L 703 4441 
L 1819 4666 
L 2450 4666 
L 2450 531 
L 3481 531 
L 3481 0 
L 794 0 
L 794 531 
z
" transform="scale(0.015625)"/>
        <path id="DejaVuSans-30" d="M 2034 4250 
Q 1547 4250 1301 3770 
Q 1056 3291 1056 2328 
Q 1056 1369 1301 889 
Q 1547 409 2034 409 
Q 2525 409 2770 889 
Q 3016 1369 3016 2328 
Q 3016 3291 2770 3770 
Q 2525 4250 2034 4250 
z
M 2034 4750 
Q 2819 4750 3233 4129 
Q 3647 3509 3647 2328 
Q 3647 1150 3233 529 
Q 2819 -91 2034 -91 
Q 1250 -91 836 529 
Q 422 1150 422 2328 
Q 422 3509 836 4129 
Q 1250 4750 2034 4750 
z
" transform="scale(0.015625)"/>
       </defs>
       <use xlink:href="#DejaVuSans-31"/>
       <use xlink:href="#DejaVuSans-30" x="63.623047"/>
      </g>
     </g>
    </g>
    <g id="xtick_3">
     <g id="line2d_3">
      <g>
       <use xlink:href="#m6d0ff96bc9" x="198.262571" y="242.44" style="stroke: #000000; stroke-width: 0.8"/>
      </g>
     </g>
     <g id="text_3">
      <!-- 15 -->
      <g transform="translate(191.900071 257.038437) scale(0.1 -0.1)">
       <use xlink:href="#DejaVuSans-31"/>
       <use xlink:href="#DejaVuSans-35" x="63.623047"/>
      </g>
     </g>
    </g>
    <g id="xtick_4">
     <g id="line2d_4">
      <g>
       <use xlink:href="#m6d0ff96bc9" x="258.356143" y="242.44" style="stroke: #000000; stroke-width: 0.8"/>
      </g>
     </g>
     <g id="text_4">
      <!-- 20 -->
      <g transform="translate(251.993643 257.038437) scale(0.1 -0.1)">
       <defs>
        <path id="DejaVuSans-32" d="M 1228 531 
L 3431 531 
L 3431 0 
L 469 0 
L 469 531 
Q 828 903 1448 1529 
Q 2069 2156 2228 2338 
Q 2531 2678 2651 2914 
Q 2772 3150 2772 3378 
Q 2772 3750 2511 3984 
Q 2250 4219 1831 4219 
Q 1534 4219 1204 4116 
Q 875 4013 500 3803 
L 500 4441 
Q 881 4594 1212 4672 
Q 1544 4750 1819 4750 
Q 2544 4750 2975 4387 
Q 3406 4025 3406 3419 
Q 3406 3131 3298 2873 
Q 3191 2616 2906 2266 
Q 2828 2175 2409 1742 
Q 1991 1309 1228 531 
z
" transform="scale(0.015625)"/>
       </defs>
       <use xlink:href="#DejaVuSans-32"/>
       <use xlink:href="#DejaVuSans-30" x="63.623047"/>
      </g>
     </g>
    </g>
    <g id="xtick_5">
     <g id="line2d_5">
      <g>
       <use xlink:href="#m6d0ff96bc9" x="318.449714" y="242.44" style="stroke: #000000; stroke-width: 0.8"/>
      </g>
     </g>
     <g id="text_5">
      <!-- 25 -->
      <g transform="translate(312.087214 257.038437) scale(0.1 -0.1)">
       <use xlink:href="#DejaVuSans-32"/>
       <use xlink:href="#DejaVuSans-35" x="63.623047"/>
      </g>
     </g>
    </g>
    <g id="xtick_6">
     <g id="line2d_6">
      <g>
       <use xlink:href="#m6d0ff96bc9" x="378.543286" y="242.44" style="stroke: #000000; stroke-width: 0.8"/>
      </g>
     </g>
     <g id="text_6">
      <!-- 30 -->
      <g transform="translate(372.180786 257.038437) scale(0.1 -0.1)">
       <defs>
        <path id="DejaVuSans-33" d="M 2597 2516 
Q 3050 2419 3304 2112 
Q 3559 1806 3559 1356 
Q 3559 666 3084 287 
Q 2609 -91 1734 -91 
Q 1441 -91 1130 -33 
Q 819 25 488 141 
L 488 750 
Q 750 597 1062 519 
Q 1375 441 1716 441 
Q 2309 441 2620 675 
Q 2931 909 2931 1356 
Q 2931 1769 2642 2001 
Q 2353 2234 1838 2234 
L 1294 2234 
L 1294 2753 
L 1863 2753 
Q 2328 2753 2575 2939 
Q 2822 3125 2822 3475 
Q 2822 3834 2567 4026 
Q 2313 4219 1838 4219 
Q 1578 4219 1281 4162 
Q 984 4106 628 3988 
L 628 4550 
Q 988 4650 1302 4700 
Q 1616 4750 1894 4750 
Q 2613 4750 3031 4423 
Q 3450 4097 3450 3541 
Q 3450 3153 3228 2886 
Q 3006 2619 2597 2516 
z
" transform="scale(0.015625)"/>
       </defs>
       <use xlink:href="#DejaVuSans-33"/>
       <use xlink:href="#DejaVuSans-30" x="63.623047"/>
      </g>
     </g>
    </g>
    <g id="text_7">
     <!-- $g_m/I_D$ (S/A) -->
     <g transform="translate(193.15 271.478125) scale(0.11 -0.11)">
      <defs>
       <path id="DejaVuSans-Oblique-67" d="M 3816 3500 
L 3219 434 
Q 3047 -456 2561 -893 
Q 2075 -1331 1253 -1331 
Q 950 -1331 690 -1286 
Q 431 -1241 206 -1147 
L 313 -588 
Q 525 -725 762 -790 
Q 1000 -856 1269 -856 
Q 1816 -856 2167 -557 
Q 2519 -259 2631 300 
L 2681 563 
Q 2441 288 2122 144 
Q 1803 0 1434 0 
Q 903 0 598 351 
Q 294 703 294 1319 
Q 294 1803 478 2267 
Q 663 2731 997 3091 
Q 1219 3328 1514 3456 
Q 1809 3584 2131 3584 
Q 2484 3584 2746 3420 
Q 3009 3256 3138 2956 
L 3238 3500 
L 3816 3500 
z
M 2950 2216 
Q 2950 2641 2750 2872 
Q 2550 3103 2181 3103 
Q 1953 3103 1747 3012 
Q 1541 2922 1394 2759 
Q 1156 2491 1023 2127 
Q 891 1763 891 1375 
Q 891 944 1092 712 
Q 1294 481 1672 481 
Q 2219 481 2584 976 
Q 2950 1472 2950 2216 
z
" transform="scale(0.015625)"/>
       <path id="DejaVuSans-Oblique-6d" d="M 5747 2113 
L 5338 0 
L 4763 0 
L 5166 2094 
Q 5191 2228 5203 2325 
Q 5216 2422 5216 2491 
Q 5216 2772 5059 2928 
Q 4903 3084 4622 3084 
Q 4203 3084 3875 2770 
Q 3547 2456 3450 1953 
L 3066 0 
L 2491 0 
L 2900 2094 
Q 2925 2209 2937 2307 
Q 2950 2406 2950 2484 
Q 2950 2769 2794 2926 
Q 2638 3084 2363 3084 
Q 1938 3084 1609 2770 
Q 1281 2456 1184 1953 
L 800 0 
L 225 0 
L 909 3500 
L 1484 3500 
L 1375 2956 
Q 1609 3263 1923 3423 
Q 2238 3584 2597 3584 
Q 2978 3584 3223 3384 
Q 3469 3184 3519 2828 
Q 3781 3197 4126 3390 
Q 4472 3584 4856 3584 
Q 5306 3584 5551 3325 
Q 5797 3066 5797 2591 
Q 5797 2488 5784 2364 
Q 5772 2241 5747 2113 
z
" transform="scale(0.015625)"/>
       <path id="DejaVuSans-2f" d="M 1625 4666 
L 2156 4666 
L 531 -594 
L 0 -594 
L 1625 4666 
z
" transform="scale(0.015625)"/>
       <path id="DejaVuSans-Oblique-49" d="M 1081 4666 
L 1716 4666 
L 806 0 
L 172 0 
L 1081 4666 
z
" transform="scale(0.015625)"/>
       <path id="DejaVuSans-Oblique-44" d="M 1081 4666 
L 2438 4666 
Q 3519 4666 4070 4208 
Q 4622 3750 4622 2847 
Q 4622 2250 4412 1698 
Q 4203 1147 3834 769 
Q 3463 381 2891 190 
Q 2319 0 1538 0 
L 172 0 
L 1081 4666 
z
M 1613 4147 
L 909 519 
L 1734 519 
Q 2794 519 3375 1128 
Q 3956 1738 3956 2847 
Q 3956 3519 3581 3833 
Q 3206 4147 2406 4147 
L 1613 4147 
z
" transform="scale(0.015625)"/>
       <path id="DejaVuSans-20" transform="scale(0.015625)"/>
       <path id="DejaVuSans-28" d="M 1984 4856 
Q 1566 4138 1362 3434 
Q 1159 2731 1159 2009 
Q 1159 1288 1364 580 
Q 1569 -128 1984 -844 
L 1484 -844 
Q 1016 -109 783 600 
Q 550 1309 550 2009 
Q 550 2706 781 3412 
Q 1013 4119 1484 4856 
L 1984 4856 
z
" transform="scale(0.015625)"/>
       <path id="DejaVuSans-53" d="M 3425 4513 
L 3425 3897 
Q 3066 4069 2747 4153 
Q 2428 4238 2131 4238 
Q 1616 4238 1336 4038 
Q 1056 3838 1056 3469 
Q 1056 3159 1242 3001 
Q 1428 2844 1947 2747 
L 2328 2669 
Q 3034 2534 3370 2195 
Q 3706 1856 3706 1288 
Q 3706 609 3251 259 
Q 2797 -91 1919 -91 
Q 1588 -91 1214 -16 
Q 841 59 441 206 
L 441 856 
Q 825 641 1194 531 
Q 1563 422 1919 422 
Q 2459 422 2753 634 
Q 3047 847 3047 1241 
Q 3047 1584 2836 1778 
Q 2625 1972 2144 2069 
L 1759 2144 
Q 1053 2284 737 2584 
Q 422 2884 422 3419 
Q 422 4038 858 4394 
Q 1294 4750 2059 4750 
Q 2388 4750 2728 4690 
Q 3069 4631 3425 4513 
z
" transform="scale(0.015625)"/>
       <path id="DejaVuSans-41" d="M 2188 4044 
L 1331 1722 
L 3047 1722 
L 2188 4044 
z
M 1831 4666 
L 2547 4666 
L 4325 0 
L 3669 0 
L 3244 1197 
L 1141 1197 
L 716 0 
L 50 0 
L 1831 4666 
z
" transform="scale(0.015625)"/>
       <path id="DejaVuSans-29" d="M 513 4856 
L 1013 4856 
Q 1481 4119 1714 3412 
Q 1947 2706 1947 2009 
Q 1947 1309 1714 600 
Q 1481 -109 1013 -844 
L 513 -844 
Q 928 -128 1133 580 
Q 1338 1288 1338 2009 
Q 1338 2731 1133 3434 
Q 928 4138 513 4856 
z
" transform="scale(0.015625)"/>
      </defs>
      <use xlink:href="#DejaVuSans-Oblique-67" transform="translate(0 0.125)"/>
      <use xlink:href="#DejaVuSans-Oblique-6d" transform="translate(63.476562 -16.28125) scale(0.7)"/>
      <use xlink:href="#DejaVuSans-2f" transform="translate(134.399414 0.125)"/>
      <use xlink:href="#DejaVuSans-Oblique-49" transform="translate(168.09082 0.125)"/>
      <use xlink:href="#DejaVuSans-Oblique-44" transform="translate(197.583008 -16.28125) scale(0.7)"/>
      <use xlink:href="#DejaVuSans-20" transform="translate(254.21875 0.125)"/>
      <use xlink:href="#DejaVuSans-28" transform="translate(286.005859 0.125)"/>
      <use xlink:href="#DejaVuSans-53" transform="translate(325.019531 0.125)"/>
      <use xlink:href="#DejaVuSans-2f" transform="translate(388.496094 0.125)"/>
      <use xlink:href="#DejaVuSans-41" transform="translate(422.1875 0.125)"/>
      <use xlink:href="#DejaVuSans-29" transform="translate(490.595703 0.125)"/>
     </g>
    </g>
   </g>
   <g id="matplotlib.axis_2">
    <g id="ytick_1">
     <g id="line2d_7">
      <defs>
       <path id="m8b2de80934" d="M 0 0 
L -3.5 0 
" style="stroke: #000000; stroke-width: 0.8"/>
      </defs>
      <g>
       <use xlink:href="#m8b2de80934" x="54.038" y="212.818964" style="stroke: #000000; stroke-width: 0.8"/>
      </g>
     </g>
     <g id="text_8">
      <!-- 20 -->
      <g style="fill: #4d4d4d" transform="translate(34.313 216.618183) scale(0.1 -0.1)">
       <use xlink:href="#DejaVuSans-32"/>
       <use xlink:href="#DejaVuSans-30" x="63.623047"/>
      </g>
     </g>
    </g>
    <g id="ytick_2">
     <g id="line2d_8">
      <g>
       <use xlink:href="#m8b2de80934" x="54.038" y="179.815316" style="stroke: #000000; stroke-width: 0.8"/>
      </g>
     </g>
     <g id="text_9">
      <!-- 40 -->
      <g style="fill: #4d4d4d" transform="translate(34.313 183.614535) scale(0.1 -0.1)">
       <defs>
        <path id="DejaVuSans-34" d="M 2419 4116 
L 825 1625 
L 2419 1625 
L 2419 4116 
z
M 2253 4666 
L 3047 4666 
L 3047 1625 
L 3713 1625 
L 3713 1100 
L 3047 1100 
L 3047 0 
L 2419 0 
L 2419 1100 
L 313 1100 
L 313 1709 
L 2253 4666 
z
" transform="scale(0.015625)"/>
       </defs>
       <use xlink:href="#DejaVuSans-34"/>
       <use xlink:href="#DejaVuSans-30" x="63.623047"/>
      </g>
     </g>
    </g>
    <g id="ytick_3">
     <g id="line2d_9">
      <g>
       <use xlink:href="#m8b2de80934" x="54.038" y="146.811669" style="stroke: #000000; stroke-width: 0.8"/>
      </g>
     </g>
     <g id="text_10">
      <!-- 60 -->
      <g style="fill: #4d4d4d" transform="translate(34.313 150.610888) scale(0.1 -0.1)">
       <defs>
        <path id="DejaVuSans-36" d="M 2113 2584 
Q 1688 2584 1439 2293 
Q 1191 2003 1191 1497 
Q 1191 994 1439 701 
Q 1688 409 2113 409 
Q 2538 409 2786 701 
Q 3034 994 3034 1497 
Q 3034 2003 2786 2293 
Q 2538 2584 2113 2584 
z
M 3366 4563 
L 3366 3988 
Q 3128 4100 2886 4159 
Q 2644 4219 2406 4219 
Q 1781 4219 1451 3797 
Q 1122 3375 1075 2522 
Q 1259 2794 1537 2939 
Q 1816 3084 2150 3084 
Q 2853 3084 3261 2657 
Q 3669 2231 3669 1497 
Q 3669 778 3244 343 
Q 2819 -91 2113 -91 
Q 1303 -91 875 529 
Q 447 1150 447 2328 
Q 447 3434 972 4092 
Q 1497 4750 2381 4750 
Q 2619 4750 2861 4703 
Q 3103 4656 3366 4563 
z
" transform="scale(0.015625)"/>
       </defs>
       <use xlink:href="#DejaVuSans-36"/>
       <use xlink:href="#DejaVuSans-30" x="63.623047"/>
      </g>
     </g>
    </g>
    <g id="ytick_4">
     <g id="line2d_10">
      <g>
       <use xlink:href="#m8b2de80934" x="54.038" y="113.808021" style="stroke: #000000; stroke-width: 0.8"/>
      </g>
     </g>
     <g id="text_11">
      <!-- 80 -->
      <g style="fill: #4d4d4d" transform="translate(34.313 117.60724) scale(0.1 -0.1)">
       <defs>
        <path id="DejaVuSans-38" d="M 2034 2216 
Q 1584 2216 1326 1975 
Q 1069 1734 1069 1313 
Q 1069 891 1326 650 
Q 1584 409 2034 409 
Q 2484 409 2743 651 
Q 3003 894 3003 1313 
Q 3003 1734 2745 1975 
Q 2488 2216 2034 2216 
z
M 1403 2484 
Q 997 2584 770 2862 
Q 544 3141 544 3541 
Q 544 4100 942 4425 
Q 1341 4750 2034 4750 
Q 2731 4750 3128 4425 
Q 3525 4100 3525 3541 
Q 3525 3141 3298 2862 
Q 3072 2584 2669 2484 
Q 3125 2378 3379 2068 
Q 3634 1759 3634 1313 
Q 3634 634 3220 271 
Q 2806 -91 2034 -91 
Q 1263 -91 848 271 
Q 434 634 434 1313 
Q 434 1759 690 2068 
Q 947 2378 1403 2484 
z
M 1172 3481 
Q 1172 3119 1398 2916 
Q 1625 2713 2034 2713 
Q 2441 2713 2670 2916 
Q 2900 3119 2900 3481 
Q 2900 3844 2670 4047 
Q 2441 4250 2034 4250 
Q 1625 4250 1398 4047 
Q 1172 3844 1172 3481 
z
" transform="scale(0.015625)"/>
       </defs>
       <use xlink:href="#DejaVuSans-38"/>
       <use xlink:href="#DejaVuSans-30" x="63.623047"/>
      </g>
     </g>
    </g>
    <g id="ytick_5">
     <g id="line2d_11">
      <g>
       <use xlink:href="#m8b2de80934" x="54.038" y="80.804374" style="stroke: #000000; stroke-width: 0.8"/>
      </g>
     </g>
     <g id="text_12">
      <!-- 100 -->
      <g style="fill: #4d4d4d" transform="translate(27.9505 84.603593) scale(0.1 -0.1)">
       <use xlink:href="#DejaVuSans-31"/>
       <use xlink:href="#DejaVuSans-30" x="63.623047"/>
       <use xlink:href="#DejaVuSans-30" x="127.246094"/>
      </g>
     </g>
    </g>
    <g id="ytick_6">
     <g id="line2d_12">
      <g>
       <use xlink:href="#m8b2de80934" x="54.038" y="47.800727" style="stroke: #000000; stroke-width: 0.8"/>
      </g>
     </g>
     <g id="text_13">
      <!-- 120 -->
      <g style="fill: #4d4d4d" transform="translate(27.9505 51.599945) scale(0.1 -0.1)">
       <use xlink:href="#DejaVuSans-31"/>
       <use xlink:href="#DejaVuSans-32" x="63.623047"/>
       <use xlink:href="#DejaVuSans-30" x="127.246094"/>
      </g>
     </g>
    </g>
    <g id="ytick_7">
     <g id="line2d_13">
      <g>
       <use xlink:href="#m8b2de80934" x="54.038" y="14.797079" style="stroke: #000000; stroke-width: 0.8"/>
      </g>
     </g>
     <g id="text_14">
      <!-- 140 -->
      <g style="fill: #4d4d4d" transform="translate(27.9505 18.596298) scale(0.1 -0.1)">
       <use xlink:href="#DejaVuSans-31"/>
       <use xlink:href="#DejaVuSans-34" x="63.623047"/>
       <use xlink:href="#DejaVuSans-30" x="127.246094"/>
      </g>
     </g>
    </g>
    <g id="text_15">
     <!-- $A_i$ (V/V) -->
     <g style="fill: #4d4d4d" transform="translate(21.662844 148.424402) rotate(-90) scale(0.11 -0.11)">
      <defs>
       <path id="DejaVuSans-Oblique-41" d="M 2356 4666 
L 3072 4666 
L 3938 0 
L 3278 0 
L 3084 1197 
L 984 1197 
L 325 0 
L -341 0 
L 2356 4666 
z
M 2584 4044 
L 1275 1722 
L 2988 1722 
L 2584 4044 
z
" transform="scale(0.015625)"/>
       <path id="DejaVuSans-Oblique-69" d="M 1172 4863 
L 1747 4863 
L 1606 4134 
L 1031 4134 
L 1172 4863 
z
M 909 3500 
L 1484 3500 
L 800 0 
L 225 0 
L 909 3500 
z
" transform="scale(0.015625)"/>
       <path id="DejaVuSans-56" d="M 1831 0 
L 50 4666 
L 709 4666 
L 2188 738 
L 3669 4666 
L 4325 4666 
L 2547 0 
L 1831 0 
z
" transform="scale(0.015625)"/>
      </defs>
      <use xlink:href="#DejaVuSans-Oblique-41" transform="translate(0 0.125)"/>
      <use xlink:href="#DejaVuSans-Oblique-69" transform="translate(68.408203 -16.28125) scale(0.7)"/>
      <use xlink:href="#DejaVuSans-20" transform="translate(90.59082 0.125)"/>
      <use xlink:href="#DejaVuSans-28" transform="translate(122.37793 0.125)"/>
      <use xlink:href="#DejaVuSans-56" transform="translate(161.391602 0.125)"/>
      <use xlink:href="#DejaVuSans-2f" transform="translate(229.799805 0.125)"/>
      <use xlink:href="#DejaVuSans-56" transform="translate(263.491211 0.125)"/>
      <use xlink:href="#DejaVuSans-29" transform="translate(331.899414 0.125)"/>
     </g>
    </g>
   </g>
   <g id="line2d_14">
    <path d="M 50.981026 196.570377 
L 53.228737 201.205038 
L 55.828115 200.011483 
L 58.507696 199.939551 
L 61.498293 199.769812 
L 64.712689 199.767835 
L 68.620625 199.721462 
L 72.774504 199.812068 
L 76.868724 199.740368 
L 82.481029 199.917459 
L 88.124429 200.011088 
L 93.921784 200.328098 
L 101.439436 200.727443 
L 109.194593 201.584177 
L 118.082059 202.806377 
L 128.365397 204.390552 
L 138.961754 206.062008 
L 151.929438 207.748384 
L 165.987253 209.058454 
L 182.246641 210.258316 
L 200.888569 211.289439 
L 222.953992 212.102727 
L 248.560534 212.874022 
L 276.462855 213.584785 
L 307.947187 214.455869 
L 338.78071 215.13835 
L 366.580037 216.093147 
L 387.646185 217.065801 
L 402.539505 218.035076 
L 410.368316 219.299416 
L 415.663287 220.29157 
L 417.620897 221.496205 
L 419.899514 222.97125 
L 419.613478 224.060344 
L 420.577893 225.340772 
L 420.433468 226.666612 
L 420.691734 227.802038 
L 420.201796 228.939942 
L 420.584969 230.001976 
L 413.134623 231.076948 
L 433 231.47494 
" clip-path="url(#p00ac760d68)" style="fill: none; stroke: #4d4d4d; stroke-width: 1.5; stroke-linecap: square"/>
    <defs>
     <path id="m303c902d3f" d="M 0 -3 
L -0.673542 -0.927051 
L -2.85317 -0.927051 
L -1.089814 0.354102 
L -1.763356 2.427051 
L -0 1.145898 
L 1.763356 2.427051 
L 1.089814 0.354102 
L 2.85317 -0.927051 
L 0.673542 -0.927051 
z
" style="stroke: #4d4d4d; stroke-linejoin: bevel"/>
    </defs>
    <g clip-path="url(#p00ac760d68)">
     <use xlink:href="#m303c902d3f" x="50.981026" y="196.570377" style="fill: #4d4d4d; stroke: #4d4d4d; stroke-linejoin: bevel"/>
     <use xlink:href="#m303c902d3f" x="53.228737" y="201.205038" style="fill: #4d4d4d; stroke: #4d4d4d; stroke-linejoin: bevel"/>
     <use xlink:href="#m303c902d3f" x="55.828115" y="200.011483" style="fill: #4d4d4d; stroke: #4d4d4d; stroke-linejoin: bevel"/>
     <use xlink:href="#m303c902d3f" x="58.507696" y="199.939551" style="fill: #4d4d4d; stroke: #4d4d4d; stroke-linejoin: bevel"/>
     <use xlink:href="#m303c902d3f" x="61.498293" y="199.769812" style="fill: #4d4d4d; stroke: #4d4d4d; stroke-linejoin: bevel"/>
     <use xlink:href="#m303c902d3f" x="64.712689" y="199.767835" style="fill: #4d4d4d; stroke: #4d4d4d; stroke-linejoin: bevel"/>
     <use xlink:href="#m303c902d3f" x="68.620625" y="199.721462" style="fill: #4d4d4d; stroke: #4d4d4d; stroke-linejoin: bevel"/>
     <use xlink:href="#m303c902d3f" x="72.774504" y="199.812068" style="fill: #4d4d4d; stroke: #4d4d4d; stroke-linejoin: bevel"/>
     <use xlink:href="#m303c902d3f" x="76.868724" y="199.740368" style="fill: #4d4d4d; stroke: #4d4d4d; stroke-linejoin: bevel"/>
     <use xlink:href="#m303c902d3f" x="82.481029" y="199.917459" style="fill: #4d4d4d; stroke: #4d4d4d; stroke-linejoin: bevel"/>
     <use xlink:href="#m303c902d3f" x="88.124429" y="200.011088" style="fill: #4d4d4d; stroke: #4d4d4d; stroke-linejoin: bevel"/>
     <use xlink:href="#m303c902d3f" x="93.921784" y="200.328098" style="fill: #4d4d4d; stroke: #4d4d4d; stroke-linejoin: bevel"/>
     <use xlink:href="#m303c902d3f" x="101.439436" y="200.727443" style="fill: #4d4d4d; stroke: #4d4d4d; stroke-linejoin: bevel"/>
     <use xlink:href="#m303c902d3f" x="109.194593" y="201.584177" style="fill: #4d4d4d; stroke: #4d4d4d; stroke-linejoin: bevel"/>
     <use xlink:href="#m303c902d3f" x="118.082059" y="202.806377" style="fill: #4d4d4d; stroke: #4d4d4d; stroke-linejoin: bevel"/>
     <use xlink:href="#m303c902d3f" x="128.365397" y="204.390552" style="fill: #4d4d4d; stroke: #4d4d4d; stroke-linejoin: bevel"/>
     <use xlink:href="#m303c902d3f" x="138.961754" y="206.062008" style="fill: #4d4d4d; stroke: #4d4d4d; stroke-linejoin: bevel"/>
     <use xlink:href="#m303c902d3f" x="151.929438" y="207.748384" style="fill: #4d4d4d; stroke: #4d4d4d; stroke-linejoin: bevel"/>
     <use xlink:href="#m303c902d3f" x="165.987253" y="209.058454" style="fill: #4d4d4d; stroke: #4d4d4d; stroke-linejoin: bevel"/>
     <use xlink:href="#m303c902d3f" x="182.246641" y="210.258316" style="fill: #4d4d4d; stroke: #4d4d4d; stroke-linejoin: bevel"/>
     <use xlink:href="#m303c902d3f" x="200.888569" y="211.289439" style="fill: #4d4d4d; stroke: #4d4d4d; stroke-linejoin: bevel"/>
     <use xlink:href="#m303c902d3f" x="222.953992" y="212.102727" style="fill: #4d4d4d; stroke: #4d4d4d; stroke-linejoin: bevel"/>
     <use xlink:href="#m303c902d3f" x="248.560534" y="212.874022" style="fill: #4d4d4d; stroke: #4d4d4d; stroke-linejoin: bevel"/>
     <use xlink:href="#m303c902d3f" x="276.462855" y="213.584785" style="fill: #4d4d4d; stroke: #4d4d4d; stroke-linejoin: bevel"/>
     <use xlink:href="#m303c902d3f" x="307.947187" y="214.455869" style="fill: #4d4d4d; stroke: #4d4d4d; stroke-linejoin: bevel"/>
     <use xlink:href="#m303c902d3f" x="338.78071" y="215.13835" style="fill: #4d4d4d; stroke: #4d4d4d; stroke-linejoin: bevel"/>
     <use xlink:href="#m303c902d3f" x="366.580037" y="216.093147" style="fill: #4d4d4d; stroke: #4d4d4d; stroke-linejoin: bevel"/>
     <use xlink:href="#m303c902d3f" x="387.646185" y="217.065801" style="fill: #4d4d4d; stroke: #4d4d4d; stroke-linejoin: bevel"/>
     <use xlink:href="#m303c902d3f" x="402.539505" y="218.035076" style="fill: #4d4d4d; stroke: #4d4d4d; stroke-linejoin: bevel"/>
     <use xlink:href="#m303c902d3f" x="410.368316" y="219.299416" style="fill: #4d4d4d; stroke: #4d4d4d; stroke-linejoin: bevel"/>
     <use xlink:href="#m303c902d3f" x="415.663287" y="220.29157" style="fill: #4d4d4d; stroke: #4d4d4d; stroke-linejoin: bevel"/>
     <use xlink:href="#m303c902d3f" x="417.620897" y="221.496205" style="fill: #4d4d4d; stroke: #4d4d4d; stroke-linejoin: bevel"/>
     <use xlink:href="#m303c902d3f" x="419.899514" y="222.97125" style="fill: #4d4d4d; stroke: #4d4d4d; stroke-linejoin: bevel"/>
     <use xlink:href="#m303c902d3f" x="419.613478" y="224.060344" style="fill: #4d4d4d; stroke: #4d4d4d; stroke-linejoin: bevel"/>
     <use xlink:href="#m303c902d3f" x="420.577893" y="225.340772" style="fill: #4d4d4d; stroke: #4d4d4d; stroke-linejoin: bevel"/>
     <use xlink:href="#m303c902d3f" x="420.433468" y="226.666612" style="fill: #4d4d4d; stroke: #4d4d4d; stroke-linejoin: bevel"/>
     <use xlink:href="#m303c902d3f" x="420.691734" y="227.802038" style="fill: #4d4d4d; stroke: #4d4d4d; stroke-linejoin: bevel"/>
     <use xlink:href="#m303c902d3f" x="420.201796" y="228.939942" style="fill: #4d4d4d; stroke: #4d4d4d; stroke-linejoin: bevel"/>
     <use xlink:href="#m303c902d3f" x="420.584969" y="230.001976" style="fill: #4d4d4d; stroke: #4d4d4d; stroke-linejoin: bevel"/>
     <use xlink:href="#m303c902d3f" x="413.134623" y="231.076948" style="fill: #4d4d4d; stroke: #4d4d4d; stroke-linejoin: bevel"/>
     <use xlink:href="#m303c902d3f" x="461.110976" y="232.038127" style="fill: #4d4d4d; stroke: #4d4d4d; stroke-linejoin: bevel"/>
    </g>
   </g>
   <g id="line2d_15">
    <path d="M 50.981026 135.428194 
L 53.228737 130.614071 
L 55.828115 118.930898 
L 58.507696 113.630599 
L 61.498293 111.123327 
L 64.712689 109.906641 
L 68.620625 109.349504 
L 72.774504 109.045599 
L 76.868724 109.293695 
L 82.481029 109.362309 
L 88.124429 110.063161 
L 93.921784 111.034031 
L 101.439436 113.097539 
L 109.194593 116.868535 
L 118.082059 122.183682 
L 128.365397 129.955533 
L 138.961754 139.044163 
L 151.929438 148.454607 
L 165.987253 157.26513 
L 182.246641 164.741429 
L 200.888569 170.829853 
L 222.953992 176.102679 
L 248.560534 180.256715 
L 276.462855 183.658241 
L 307.947187 186.634924 
L 338.78071 189.211655 
L 366.580037 191.568207 
L 387.646185 193.86338 
L 402.539505 195.769212 
L 410.368316 198.2123 
L 415.663287 200.328084 
L 417.620897 201.964154 
L 419.899514 204.725011 
L 419.613478 206.840723 
L 420.577893 209.109618 
L 420.433468 211.31534 
L 420.691734 213.678591 
L 420.201796 216.140718 
L 420.584969 218.231433 
L 413.134623 220.537719 
L 433 221.253927 
" clip-path="url(#p00ac760d68)" style="fill: none; stroke: #4d4d4d; stroke-width: 1.5; stroke-linecap: square"/>
    <g clip-path="url(#p00ac760d68)">
     <use xlink:href="#m303c902d3f" x="50.981026" y="135.428194" style="fill: #4d4d4d; stroke: #4d4d4d; stroke-linejoin: bevel"/>
     <use xlink:href="#m303c902d3f" x="53.228737" y="130.614071" style="fill: #4d4d4d; stroke: #4d4d4d; stroke-linejoin: bevel"/>
     <use xlink:href="#m303c902d3f" x="55.828115" y="118.930898" style="fill: #4d4d4d; stroke: #4d4d4d; stroke-linejoin: bevel"/>
     <use xlink:href="#m303c902d3f" x="58.507696" y="113.630599" style="fill: #4d4d4d; stroke: #4d4d4d; stroke-linejoin: bevel"/>
     <use xlink:href="#m303c902d3f" x="61.498293" y="111.123327" style="fill: #4d4d4d; stroke: #4d4d4d; stroke-linejoin: bevel"/>
     <use xlink:href="#m303c902d3f" x="64.712689" y="109.906641" style="fill: #4d4d4d; stroke: #4d4d4d; stroke-linejoin: bevel"/>
     <use xlink:href="#m303c902d3f" x="68.620625" y="109.349504" style="fill: #4d4d4d; stroke: #4d4d4d; stroke-linejoin: bevel"/>
     <use xlink:href="#m303c902d3f" x="72.774504" y="109.045599" style="fill: #4d4d4d; stroke: #4d4d4d; stroke-linejoin: bevel"/>
     <use xlink:href="#m303c902d3f" x="76.868724" y="109.293695" style="fill: #4d4d4d; stroke: #4d4d4d; stroke-linejoin: bevel"/>
     <use xlink:href="#m303c902d3f" x="82.481029" y="109.362309" style="fill: #4d4d4d; stroke: #4d4d4d; stroke-linejoin: bevel"/>
     <use xlink:href="#m303c902d3f" x="88.124429" y="110.063161" style="fill: #4d4d4d; stroke: #4d4d4d; stroke-linejoin: bevel"/>
     <use xlink:href="#m303c902d3f" x="93.921784" y="111.034031" style="fill: #4d4d4d; stroke: #4d4d4d; stroke-linejoin: bevel"/>
     <use xlink:href="#m303c902d3f" x="101.439436" y="113.097539" style="fill: #4d4d4d; stroke: #4d4d4d; stroke-linejoin: bevel"/>
     <use xlink:href="#m303c902d3f" x="109.194593" y="116.868535" style="fill: #4d4d4d; stroke: #4d4d4d; stroke-linejoin: bevel"/>
     <use xlink:href="#m303c902d3f" x="118.082059" y="122.183682" style="fill: #4d4d4d; stroke: #4d4d4d; stroke-linejoin: bevel"/>
     <use xlink:href="#m303c902d3f" x="128.365397" y="129.955533" style="fill: #4d4d4d; stroke: #4d4d4d; stroke-linejoin: bevel"/>
     <use xlink:href="#m303c902d3f" x="138.961754" y="139.044163" style="fill: #4d4d4d; stroke: #4d4d4d; stroke-linejoin: bevel"/>
     <use xlink:href="#m303c902d3f" x="151.929438" y="148.454607" style="fill: #4d4d4d; stroke: #4d4d4d; stroke-linejoin: bevel"/>
     <use xlink:href="#m303c902d3f" x="165.987253" y="157.26513" style="fill: #4d4d4d; stroke: #4d4d4d; stroke-linejoin: bevel"/>
     <use xlink:href="#m303c902d3f" x="182.246641" y="164.741429" style="fill: #4d4d4d; stroke: #4d4d4d; stroke-linejoin: bevel"/>
     <use xlink:href="#m303c902d3f" x="200.888569" y="170.829853" style="fill: #4d4d4d; stroke: #4d4d4d; stroke-linejoin: bevel"/>
     <use xlink:href="#m303c902d3f" x="222.953992" y="176.102679" style="fill: #4d4d4d; stroke: #4d4d4d; stroke-linejoin: bevel"/>
     <use xlink:href="#m303c902d3f" x="248.560534" y="180.256715" style="fill: #4d4d4d; stroke: #4d4d4d; stroke-linejoin: bevel"/>
     <use xlink:href="#m303c902d3f" x="276.462855" y="183.658241" style="fill: #4d4d4d; stroke: #4d4d4d; stroke-linejoin: bevel"/>
     <use xlink:href="#m303c902d3f" x="307.947187" y="186.634924" style="fill: #4d4d4d; stroke: #4d4d4d; stroke-linejoin: bevel"/>
     <use xlink:href="#m303c902d3f" x="338.78071" y="189.211655" style="fill: #4d4d4d; stroke: #4d4d4d; stroke-linejoin: bevel"/>
     <use xlink:href="#m303c902d3f" x="366.580037" y="191.568207" style="fill: #4d4d4d; stroke: #4d4d4d; stroke-linejoin: bevel"/>
     <use xlink:href="#m303c902d3f" x="387.646185" y="193.86338" style="fill: #4d4d4d; stroke: #4d4d4d; stroke-linejoin: bevel"/>
     <use xlink:href="#m303c902d3f" x="402.539505" y="195.769212" style="fill: #4d4d4d; stroke: #4d4d4d; stroke-linejoin: bevel"/>
     <use xlink:href="#m303c902d3f" x="410.368316" y="198.2123" style="fill: #4d4d4d; stroke: #4d4d4d; stroke-linejoin: bevel"/>
     <use xlink:href="#m303c902d3f" x="415.663287" y="200.328084" style="fill: #4d4d4d; stroke: #4d4d4d; stroke-linejoin: bevel"/>
     <use xlink:href="#m303c902d3f" x="417.620897" y="201.964154" style="fill: #4d4d4d; stroke: #4d4d4d; stroke-linejoin: bevel"/>
     <use xlink:href="#m303c902d3f" x="419.899514" y="204.725011" style="fill: #4d4d4d; stroke: #4d4d4d; stroke-linejoin: bevel"/>
     <use xlink:href="#m303c902d3f" x="419.613478" y="206.840723" style="fill: #4d4d4d; stroke: #4d4d4d; stroke-linejoin: bevel"/>
     <use xlink:href="#m303c902d3f" x="420.577893" y="209.109618" style="fill: #4d4d4d; stroke: #4d4d4d; stroke-linejoin: bevel"/>
     <use xlink:href="#m303c902d3f" x="420.433468" y="211.31534" style="fill: #4d4d4d; stroke: #4d4d4d; stroke-linejoin: bevel"/>
     <use xlink:href="#m303c902d3f" x="420.691734" y="213.678591" style="fill: #4d4d4d; stroke: #4d4d4d; stroke-linejoin: bevel"/>
     <use xlink:href="#m303c902d3f" x="420.201796" y="216.140718" style="fill: #4d4d4d; stroke: #4d4d4d; stroke-linejoin: bevel"/>
     <use xlink:href="#m303c902d3f" x="420.584969" y="218.231433" style="fill: #4d4d4d; stroke: #4d4d4d; stroke-linejoin: bevel"/>
     <use xlink:href="#m303c902d3f" x="413.134623" y="220.537719" style="fill: #4d4d4d; stroke: #4d4d4d; stroke-linejoin: bevel"/>
     <use xlink:href="#m303c902d3f" x="461.110976" y="222.267414" style="fill: #4d4d4d; stroke: #4d4d4d; stroke-linejoin: bevel"/>
    </g>
   </g>
   <g id="line2d_16">
    <path d="M 50.981026 122.703831 
L 53.228737 96.802517 
L 55.828115 62.733355 
L 58.507696 43.696908 
L 61.498293 33.127765 
L 64.712689 27.716492 
L 68.620625 25.057341 
L 72.774504 24.196754 
L 76.868724 24.035298 
L 82.481029 24.000677 
L 88.124429 24.985428 
L 93.921784 26.543465 
L 101.439436 30.271403 
L 109.194593 35.91163 
L 118.082059 45.186698 
L 128.365397 57.891721 
L 138.961754 73.653149 
L 151.929438 90.20333 
L 165.987253 106.132016 
L 182.246641 120.125305 
L 200.888569 131.811688 
L 222.953992 141.566742 
L 248.560534 149.641217 
L 276.462855 156.032551 
L 307.947187 161.677651 
L 338.78071 166.332111 
L 366.580037 170.345793 
L 387.646185 174.20129 
L 402.539505 177.556247 
L 410.368316 180.609727 
L 415.663287 183.663604 
L 417.620897 186.738938 
L 419.899514 189.335159 
L 419.613478 192.724502 
L 420.577893 195.899216 
L 420.433468 198.433649 
L 420.691734 201.721894 
L 420.201796 204.894145 
L 420.584969 208.172959 
L 413.134623 211.417467 
L 433 212.56362 
" clip-path="url(#p00ac760d68)" style="fill: none; stroke: #4d4d4d; stroke-width: 1.5; stroke-linecap: square"/>
    <g clip-path="url(#p00ac760d68)">
     <use xlink:href="#m303c902d3f" x="50.981026" y="122.703831" style="fill: #4d4d4d; stroke: #4d4d4d; stroke-linejoin: bevel"/>
     <use xlink:href="#m303c902d3f" x="53.228737" y="96.802517" style="fill: #4d4d4d; stroke: #4d4d4d; stroke-linejoin: bevel"/>
     <use xlink:href="#m303c902d3f" x="55.828115" y="62.733355" style="fill: #4d4d4d; stroke: #4d4d4d; stroke-linejoin: bevel"/>
     <use xlink:href="#m303c902d3f" x="58.507696" y="43.696908" style="fill: #4d4d4d; stroke: #4d4d4d; stroke-linejoin: bevel"/>
     <use xlink:href="#m303c902d3f" x="61.498293" y="33.127765" style="fill: #4d4d4d; stroke: #4d4d4d; stroke-linejoin: bevel"/>
     <use xlink:href="#m303c902d3f" x="64.712689" y="27.716492" style="fill: #4d4d4d; stroke: #4d4d4d; stroke-linejoin: bevel"/>
     <use xlink:href="#m303c902d3f" x="68.620625" y="25.057341" style="fill: #4d4d4d; stroke: #4d4d4d; stroke-linejoin: bevel"/>
     <use xlink:href="#m303c902d3f" x="72.774504" y="24.196754" style="fill: #4d4d4d; stroke: #4d4d4d; stroke-linejoin: bevel"/>
     <use xlink:href="#m303c902d3f" x="76.868724" y="24.035298" style="fill: #4d4d4d; stroke: #4d4d4d; stroke-linejoin: bevel"/>
     <use xlink:href="#m303c902d3f" x="82.481029" y="24.000677" style="fill: #4d4d4d; stroke: #4d4d4d; stroke-linejoin: bevel"/>
     <use xlink:href="#m303c902d3f" x="88.124429" y="24.985428" style="fill: #4d4d4d; stroke: #4d4d4d; stroke-linejoin: bevel"/>
     <use xlink:href="#m303c902d3f" x="93.921784" y="26.543465" style="fill: #4d4d4d; stroke: #4d4d4d; stroke-linejoin: bevel"/>
     <use xlink:href="#m303c902d3f" x="101.439436" y="30.271403" style="fill: #4d4d4d; stroke: #4d4d4d; stroke-linejoin: bevel"/>
     <use xlink:href="#m303c902d3f" x="109.194593" y="35.91163" style="fill: #4d4d4d; stroke: #4d4d4d; stroke-linejoin: bevel"/>
     <use xlink:href="#m303c902d3f" x="118.082059" y="45.186698" style="fill: #4d4d4d; stroke: #4d4d4d; stroke-linejoin: bevel"/>
     <use xlink:href="#m303c902d3f" x="128.365397" y="57.891721" style="fill: #4d4d4d; stroke: #4d4d4d; stroke-linejoin: bevel"/>
     <use xlink:href="#m303c902d3f" x="138.961754" y="73.653149" style="fill: #4d4d4d; stroke: #4d4d4d; stroke-linejoin: bevel"/>
     <use xlink:href="#m303c902d3f" x="151.929438" y="90.20333" style="fill: #4d4d4d; stroke: #4d4d4d; stroke-linejoin: bevel"/>
     <use xlink:href="#m303c902d3f" x="165.987253" y="106.132016" style="fill: #4d4d4d; stroke: #4d4d4d; stroke-linejoin: bevel"/>
     <use xlink:href="#m303c902d3f" x="182.246641" y="120.125305" style="fill: #4d4d4d; stroke: #4d4d4d; stroke-linejoin: bevel"/>
     <use xlink:href="#m303c902d3f" x="200.888569" y="131.811688" style="fill: #4d4d4d; stroke: #4d4d4d; stroke-linejoin: bevel"/>
     <use xlink:href="#m303c902d3f" x="222.953992" y="141.566742" style="fill: #4d4d4d; stroke: #4d4d4d; stroke-linejoin: bevel"/>
     <use xlink:href="#m303c902d3f" x="248.560534" y="149.641217" style="fill: #4d4d4d; stroke: #4d4d4d; stroke-linejoin: bevel"/>
     <use xlink:href="#m303c902d3f" x="276.462855" y="156.032551" style="fill: #4d4d4d; stroke: #4d4d4d; stroke-linejoin: bevel"/>
     <use xlink:href="#m303c902d3f" x="307.947187" y="161.677651" style="fill: #4d4d4d; stroke: #4d4d4d; stroke-linejoin: bevel"/>
     <use xlink:href="#m303c902d3f" x="338.78071" y="166.332111" style="fill: #4d4d4d; stroke: #4d4d4d; stroke-linejoin: bevel"/>
     <use xlink:href="#m303c902d3f" x="366.580037" y="170.345793" style="fill: #4d4d4d; stroke: #4d4d4d; stroke-linejoin: bevel"/>
     <use xlink:href="#m303c902d3f" x="387.646185" y="174.20129" style="fill: #4d4d4d; stroke: #4d4d4d; stroke-linejoin: bevel"/>
     <use xlink:href="#m303c902d3f" x="402.539505" y="177.556247" style="fill: #4d4d4d; stroke: #4d4d4d; stroke-linejoin: bevel"/>
     <use xlink:href="#m303c902d3f" x="410.368316" y="180.609727" style="fill: #4d4d4d; stroke: #4d4d4d; stroke-linejoin: bevel"/>
     <use xlink:href="#m303c902d3f" x="415.663287" y="183.663604" style="fill: #4d4d4d; stroke: #4d4d4d; stroke-linejoin: bevel"/>
     <use xlink:href="#m303c902d3f" x="417.620897" y="186.738938" style="fill: #4d4d4d; stroke: #4d4d4d; stroke-linejoin: bevel"/>
     <use xlink:href="#m303c902d3f" x="419.899514" y="189.335159" style="fill: #4d4d4d; stroke: #4d4d4d; stroke-linejoin: bevel"/>
     <use xlink:href="#m303c902d3f" x="419.613478" y="192.724502" style="fill: #4d4d4d; stroke: #4d4d4d; stroke-linejoin: bevel"/>
     <use xlink:href="#m303c902d3f" x="420.577893" y="195.899216" style="fill: #4d4d4d; stroke: #4d4d4d; stroke-linejoin: bevel"/>
     <use xlink:href="#m303c902d3f" x="420.433468" y="198.433649" style="fill: #4d4d4d; stroke: #4d4d4d; stroke-linejoin: bevel"/>
     <use xlink:href="#m303c902d3f" x="420.691734" y="201.721894" style="fill: #4d4d4d; stroke: #4d4d4d; stroke-linejoin: bevel"/>
     <use xlink:href="#m303c902d3f" x="420.201796" y="204.894145" style="fill: #4d4d4d; stroke: #4d4d4d; stroke-linejoin: bevel"/>
     <use xlink:href="#m303c902d3f" x="420.584969" y="208.172959" style="fill: #4d4d4d; stroke: #4d4d4d; stroke-linejoin: bevel"/>
     <use xlink:href="#m303c902d3f" x="413.134623" y="211.417467" style="fill: #4d4d4d; stroke: #4d4d4d; stroke-linejoin: bevel"/>
     <use xlink:href="#m303c902d3f" x="461.110976" y="214.185511" style="fill: #4d4d4d; stroke: #4d4d4d; stroke-linejoin: bevel"/>
    </g>
   </g>
   <g id="line2d_17">
    <path d="M 258.356143 224.132704 
L 258.356143 25.040865 
" clip-path="url(#p00ac760d68)" style="fill: none; stroke-dasharray: 5.55,2.4; stroke-dashoffset: 0; stroke: #000000; stroke-opacity: 0.3; stroke-width: 1.5"/>
   </g>
   <g id="line2d_18">
    <path d="M 138.169 224.132704 
L 138.169 25.040865 
" clip-path="url(#p00ac760d68)" style="fill: none; stroke-dasharray: 5.55,2.4; stroke-dashoffset: 0; stroke: #000000; stroke-opacity: 0.3; stroke-width: 1.5"/>
   </g>
   <g id="patch_3">
    <path d="M 54.038 242.44 
L 54.038 13.598805 
" style="fill: none; stroke: #000000; stroke-width: 0.8; stroke-linejoin: miter; stroke-linecap: square"/>
   </g>
   <g id="patch_4">
    <path d="M 390.562 242.44 
L 390.562 13.598805 
" style="fill: none; stroke: #000000; stroke-width: 0.8; stroke-linejoin: miter; stroke-linecap: square"/>
   </g>
   <g id="patch_5">
    <path d="M 54.038 242.44 
L 390.562 242.44 
" style="fill: none; stroke: #000000; stroke-width: 0.8; stroke-linejoin: miter; stroke-linecap: square"/>
   </g>
   <g id="patch_6">
    <path d="M 54.038 13.598805 
L 390.562 13.598805 
" style="fill: none; stroke: #000000; stroke-width: 0.8; stroke-linejoin: miter; stroke-linecap: square"/>
   </g>
   <g id="text_16">
    <!-- WI -->
    <g transform="translate(90.094143 80.804374) scale(0.11 -0.11)">
     <defs>
      <path id="DejaVuSans-Oblique-57" d="M 616 4666 
L 1228 4666 
L 1453 697 
L 3213 4666 
L 3916 4666 
L 4147 697 
L 5888 4666 
L 6528 4666 
L 4453 0 
L 3659 0 
L 3444 3891 
L 1697 0 
L 903 0 
L 616 4666 
z
" transform="scale(0.015625)"/>
     </defs>
     <use xlink:href="#DejaVuSans-Oblique-57"/>
     <use xlink:href="#DejaVuSans-Oblique-49" x="98.876953"/>
    </g>
   </g>
   <g id="text_17">
    <!-- MI -->
    <g transform="translate(186.243857 80.804374) scale(0.11 -0.11)">
     <defs>
      <path id="DejaVuSans-Oblique-4d" d="M 1081 4666 
L 2028 4666 
L 2572 1522 
L 4378 4666 
L 5350 4666 
L 4441 0 
L 3828 0 
L 4622 4091 
L 2791 897 
L 2175 897 
L 1581 4103 
L 788 0 
L 172 0 
L 1081 4666 
z
" transform="scale(0.015625)"/>
     </defs>
     <use xlink:href="#DejaVuSans-Oblique-4d"/>
     <use xlink:href="#DejaVuSans-Oblique-49" x="86.279297"/>
    </g>
   </g>
   <g id="text_18">
    <!-- SI -->
    <g transform="translate(306.431 80.804374) scale(0.11 -0.11)">
     <defs>
      <path id="DejaVuSans-Oblique-53" d="M 3859 4513 
L 3738 3897 
Q 3422 4066 3111 4152 
Q 2800 4238 2509 4238 
Q 1944 4238 1609 3991 
Q 1275 3744 1275 3334 
Q 1275 3109 1398 2989 
Q 1522 2869 2034 2731 
L 2413 2638 
Q 3053 2472 3303 2217 
Q 3553 1963 3553 1503 
Q 3553 797 2998 353 
Q 2444 -91 1538 -91 
Q 1166 -91 791 -17 
Q 416 56 38 206 
L 166 856 
Q 513 641 861 531 
Q 1209 422 1556 422 
Q 2147 422 2503 684 
Q 2859 947 2859 1369 
Q 2859 1650 2717 1795 
Q 2575 1941 2106 2059 
L 1728 2156 
Q 1081 2325 845 2545 
Q 609 2766 609 3163 
Q 609 3859 1145 4304 
Q 1681 4750 2541 4750 
Q 2875 4750 3203 4690 
Q 3531 4631 3859 4513 
z
" transform="scale(0.015625)"/>
     </defs>
     <use xlink:href="#DejaVuSans-Oblique-53"/>
     <use xlink:href="#DejaVuSans-Oblique-49" x="63.476562"/>
    </g>
   </g>
   <g id="patch_7">
    <path d="M 278.889027 85.356924 
Q 275.006619 75.756263 271.627188 67.399393 
" style="fill: none; stroke: #000000; stroke-width: 1.2; stroke-linecap: round"/>
    <path d="M 271.272639 71.857453 
L 271.627188 67.399393 
L 274.980906 70.357868 
" style="fill: none; stroke: #000000; stroke-width: 1.2; stroke-linecap: round"/>
   </g>
   <g id="text_19">
    <g id="patch_8">
     <path d="M 270.374857 101.385885 
L 294.835795 101.385885 
Q 296.835795 101.385885 296.835795 99.385885 
L 296.835795 89.70776 
Q 296.835795 87.70776 294.835795 87.70776 
L 270.374857 87.70776 
Q 268.374857 87.70776 268.374857 89.70776 
L 268.374857 99.385885 
Q 268.374857 101.385885 270.374857 101.385885 
z
" style="fill: #ffffff; opacity: 0.2; stroke: #808080; stroke-linejoin: miter"/>
    </g>
    <!-- stk 1 -->
    <g transform="translate(270.374857 97.306198) scale(0.1 -0.1)">
     <defs>
      <path id="DejaVuSans-73" d="M 2834 3397 
L 2834 2853 
Q 2591 2978 2328 3040 
Q 2066 3103 1784 3103 
Q 1356 3103 1142 2972 
Q 928 2841 928 2578 
Q 928 2378 1081 2264 
Q 1234 2150 1697 2047 
L 1894 2003 
Q 2506 1872 2764 1633 
Q 3022 1394 3022 966 
Q 3022 478 2636 193 
Q 2250 -91 1575 -91 
Q 1294 -91 989 -36 
Q 684 19 347 128 
L 347 722 
Q 666 556 975 473 
Q 1284 391 1588 391 
Q 1994 391 2212 530 
Q 2431 669 2431 922 
Q 2431 1156 2273 1281 
Q 2116 1406 1581 1522 
L 1381 1569 
Q 847 1681 609 1914 
Q 372 2147 372 2553 
Q 372 3047 722 3315 
Q 1072 3584 1716 3584 
Q 2034 3584 2315 3537 
Q 2597 3491 2834 3397 
z
" transform="scale(0.015625)"/>
      <path id="DejaVuSans-74" d="M 1172 4494 
L 1172 3500 
L 2356 3500 
L 2356 3053 
L 1172 3053 
L 1172 1153 
Q 1172 725 1289 603 
Q 1406 481 1766 481 
L 2356 481 
L 2356 0 
L 1766 0 
Q 1100 0 847 248 
Q 594 497 594 1153 
L 594 3053 
L 172 3053 
L 172 3500 
L 594 3500 
L 594 4494 
L 1172 4494 
z
" transform="scale(0.015625)"/>
      <path id="DejaVuSans-6b" d="M 581 4863 
L 1159 4863 
L 1159 1991 
L 2875 3500 
L 3609 3500 
L 1753 1863 
L 3688 0 
L 2938 0 
L 1159 1709 
L 1159 0 
L 581 0 
L 581 4863 
z
" transform="scale(0.015625)"/>
     </defs>
     <use xlink:href="#DejaVuSans-73"/>
     <use xlink:href="#DejaVuSans-74" x="52.099609"/>
     <use xlink:href="#DejaVuSans-6b" x="91.308594"/>
     <use xlink:href="#DejaVuSans-20" x="149.21875"/>
     <use xlink:href="#DejaVuSans-31" x="181.005859"/>
    </g>
   </g>
   <g id="patch_9">
    <path d="M 289.907008 214.142236 
Q 286.609791 207.768163 283.928996 202.585737 
" style="fill: none; stroke: #000000; stroke-width: 1.2; stroke-linecap: round"/>
    <path d="M 283.990409 207.057451 
L 283.928996 202.585737 
L 287.543215 205.219635 
" style="fill: none; stroke: #000000; stroke-width: 1.2; stroke-linecap: round"/>
   </g>
   <g id="text_20">
    <g id="patch_10">
     <path d="M 282.393571 230.10011 
L 306.854509 230.10011 
Q 308.854509 230.10011 308.854509 228.10011 
L 308.854509 218.421985 
Q 308.854509 216.421985 306.854509 216.421985 
L 282.393571 216.421985 
Q 280.393571 216.421985 280.393571 218.421985 
L 280.393571 228.10011 
Q 280.393571 230.10011 282.393571 230.10011 
z
" style="fill: #ffffff; opacity: 0.2; stroke: #808080; stroke-linejoin: miter"/>
    </g>
    <!-- stk 3 -->
    <g transform="translate(282.393571 226.020423) scale(0.1 -0.1)">
     <use xlink:href="#DejaVuSans-73"/>
     <use xlink:href="#DejaVuSans-74" x="52.099609"/>
     <use xlink:href="#DejaVuSans-6b" x="91.308594"/>
     <use xlink:href="#DejaVuSans-20" x="149.21875"/>
     <use xlink:href="#DejaVuSans-33" x="181.005859"/>
    </g>
   </g>
   <g id="patch_11">
    <path d="M 130.919709 85.42005 
Q 134.097468 79.056559 136.675829 73.893368 
" style="fill: none; stroke: #000000; stroke-width: 1.2; stroke-linecap: round"/>
    <path d="M 133.099466 76.578442 
L 136.675829 73.893368 
L 136.678071 78.365503 
" style="fill: none; stroke: #000000; stroke-width: 1.2; stroke-linecap: round"/>
   </g>
   <g id="text_21">
    <g id="patch_12">
     <path d="M 114.131571 101.385885 
L 138.592509 101.385885 
Q 140.592509 101.385885 140.592509 99.385885 
L 140.592509 89.70776 
Q 140.592509 87.70776 138.592509 87.70776 
L 114.131571 87.70776 
Q 112.131571 87.70776 112.131571 89.70776 
L 112.131571 99.385885 
Q 112.131571 101.385885 114.131571 101.385885 
z
" style="fill: #ffffff; opacity: 0.2; stroke: #808080; stroke-linejoin: miter"/>
    </g>
    <!-- stk 3 -->
    <g transform="translate(114.131571 97.306198) scale(0.1 -0.1)">
     <use xlink:href="#DejaVuSans-73"/>
     <use xlink:href="#DejaVuSans-74" x="52.099609"/>
     <use xlink:href="#DejaVuSans-6b" x="91.308594"/>
     <use xlink:href="#DejaVuSans-20" x="149.21875"/>
     <use xlink:href="#DejaVuSans-33" x="181.005859"/>
    </g>
   </g>
   <g id="patch_13">
    <path d="M 92.972033 185.757628 
Q 86.25656 192.005739 80.523333 197.339962 
" style="fill: none; stroke: #000000; stroke-width: 1.2; stroke-linecap: round"/>
    <path d="M 84.814171 196.079523 
L 80.523333 197.339962 
L 82.089484 193.151028 
" style="fill: none; stroke: #000000; stroke-width: 1.2; stroke-linecap: round"/>
   </g>
   <g id="text_22">
    <g id="patch_14">
     <path d="M 90.094143 183.895004 
L 114.55508 183.895004 
Q 116.55508 183.895004 116.55508 181.895004 
L 116.55508 172.216879 
Q 116.55508 170.216879 114.55508 170.216879 
L 90.094143 170.216879 
Q 88.094143 170.216879 88.094143 172.216879 
L 88.094143 181.895004 
Q 88.094143 183.895004 90.094143 183.895004 
z
" style="fill: #ffffff; opacity: 0.2; stroke: #808080; stroke-linejoin: miter"/>
    </g>
    <!-- stk 1 -->
    <g transform="translate(90.094143 179.815316) scale(0.1 -0.1)">
     <use xlink:href="#DejaVuSans-73"/>
     <use xlink:href="#DejaVuSans-74" x="52.099609"/>
     <use xlink:href="#DejaVuSans-6b" x="91.308594"/>
     <use xlink:href="#DejaVuSans-20" x="149.21875"/>
     <use xlink:href="#DejaVuSans-31" x="181.005859"/>
    </g>
   </g>
   <g id="legend_1">
    <g id="patch_15">
     <path d="M 61.038 36.27693 
L 174.838 36.27693 
Q 176.838 36.27693 176.838 34.27693 
L 176.838 20.598805 
Q 176.838 18.598805 174.838 18.598805 
L 61.038 18.598805 
Q 59.038 18.598805 59.038 20.598805 
L 59.038 34.27693 
Q 59.038 36.27693 61.038 36.27693 
z
" style="fill: #ffffff; opacity: 0.8; stroke: #cccccc; stroke-linejoin: miter"/>
    </g>
    <g id="line2d_19">
     <path d="M 63.038 26.697242 
L 73.038 26.697242 
L 83.038 26.697242 
" style="fill: none; stroke: #4d4d4d; stroke-width: 1.5; stroke-linecap: square"/>
     <g>
      <use xlink:href="#m303c902d3f" x="73.038" y="26.697242" style="fill: #4d4d4d; stroke: #4d4d4d; stroke-linejoin: bevel"/>
     </g>
    </g>
    <g id="text_23">
     <!-- Intrinsic Gain: $A_i$ -->
     <g transform="translate(91.038 30.197242) scale(0.1 -0.1)">
      <defs>
       <path id="DejaVuSans-49" d="M 628 4666 
L 1259 4666 
L 1259 0 
L 628 0 
L 628 4666 
z
" transform="scale(0.015625)"/>
       <path id="DejaVuSans-6e" d="M 3513 2113 
L 3513 0 
L 2938 0 
L 2938 2094 
Q 2938 2591 2744 2837 
Q 2550 3084 2163 3084 
Q 1697 3084 1428 2787 
Q 1159 2491 1159 1978 
L 1159 0 
L 581 0 
L 581 3500 
L 1159 3500 
L 1159 2956 
Q 1366 3272 1645 3428 
Q 1925 3584 2291 3584 
Q 2894 3584 3203 3211 
Q 3513 2838 3513 2113 
z
" transform="scale(0.015625)"/>
       <path id="DejaVuSans-72" d="M 2631 2963 
Q 2534 3019 2420 3045 
Q 2306 3072 2169 3072 
Q 1681 3072 1420 2755 
Q 1159 2438 1159 1844 
L 1159 0 
L 581 0 
L 581 3500 
L 1159 3500 
L 1159 2956 
Q 1341 3275 1631 3429 
Q 1922 3584 2338 3584 
Q 2397 3584 2469 3576 
Q 2541 3569 2628 3553 
L 2631 2963 
z
" transform="scale(0.015625)"/>
       <path id="DejaVuSans-69" d="M 603 3500 
L 1178 3500 
L 1178 0 
L 603 0 
L 603 3500 
z
M 603 4863 
L 1178 4863 
L 1178 4134 
L 603 4134 
L 603 4863 
z
" transform="scale(0.015625)"/>
       <path id="DejaVuSans-63" d="M 3122 3366 
L 3122 2828 
Q 2878 2963 2633 3030 
Q 2388 3097 2138 3097 
Q 1578 3097 1268 2742 
Q 959 2388 959 1747 
Q 959 1106 1268 751 
Q 1578 397 2138 397 
Q 2388 397 2633 464 
Q 2878 531 3122 666 
L 3122 134 
Q 2881 22 2623 -34 
Q 2366 -91 2075 -91 
Q 1284 -91 818 406 
Q 353 903 353 1747 
Q 353 2603 823 3093 
Q 1294 3584 2113 3584 
Q 2378 3584 2631 3529 
Q 2884 3475 3122 3366 
z
" transform="scale(0.015625)"/>
       <path id="DejaVuSans-47" d="M 3809 666 
L 3809 1919 
L 2778 1919 
L 2778 2438 
L 4434 2438 
L 4434 434 
Q 4069 175 3628 42 
Q 3188 -91 2688 -91 
Q 1594 -91 976 548 
Q 359 1188 359 2328 
Q 359 3472 976 4111 
Q 1594 4750 2688 4750 
Q 3144 4750 3555 4637 
Q 3966 4525 4313 4306 
L 4313 3634 
Q 3963 3931 3569 4081 
Q 3175 4231 2741 4231 
Q 1884 4231 1454 3753 
Q 1025 3275 1025 2328 
Q 1025 1384 1454 906 
Q 1884 428 2741 428 
Q 3075 428 3337 486 
Q 3600 544 3809 666 
z
" transform="scale(0.015625)"/>
       <path id="DejaVuSans-61" d="M 2194 1759 
Q 1497 1759 1228 1600 
Q 959 1441 959 1056 
Q 959 750 1161 570 
Q 1363 391 1709 391 
Q 2188 391 2477 730 
Q 2766 1069 2766 1631 
L 2766 1759 
L 2194 1759 
z
M 3341 1997 
L 3341 0 
L 2766 0 
L 2766 531 
Q 2569 213 2275 61 
Q 1981 -91 1556 -91 
Q 1019 -91 701 211 
Q 384 513 384 1019 
Q 384 1609 779 1909 
Q 1175 2209 1959 2209 
L 2766 2209 
L 2766 2266 
Q 2766 2663 2505 2880 
Q 2244 3097 1772 3097 
Q 1472 3097 1187 3025 
Q 903 2953 641 2809 
L 641 3341 
Q 956 3463 1253 3523 
Q 1550 3584 1831 3584 
Q 2591 3584 2966 3190 
Q 3341 2797 3341 1997 
z
" transform="scale(0.015625)"/>
       <path id="DejaVuSans-3a" d="M 750 794 
L 1409 794 
L 1409 0 
L 750 0 
L 750 794 
z
M 750 3309 
L 1409 3309 
L 1409 2516 
L 750 2516 
L 750 3309 
z
" transform="scale(0.015625)"/>
      </defs>
      <use xlink:href="#DejaVuSans-49" transform="translate(0 0.015625)"/>
      <use xlink:href="#DejaVuSans-6e" transform="translate(29.492188 0.015625)"/>
      <use xlink:href="#DejaVuSans-74" transform="translate(92.871094 0.015625)"/>
      <use xlink:href="#DejaVuSans-72" transform="translate(132.080078 0.015625)"/>
      <use xlink:href="#DejaVuSans-69" transform="translate(173.193359 0.015625)"/>
      <use xlink:href="#DejaVuSans-6e" transform="translate(200.976562 0.015625)"/>
      <use xlink:href="#DejaVuSans-73" transform="translate(264.355469 0.015625)"/>
      <use xlink:href="#DejaVuSans-69" transform="translate(316.455078 0.015625)"/>
      <use xlink:href="#DejaVuSans-63" transform="translate(344.238281 0.015625)"/>
      <use xlink:href="#DejaVuSans-20" transform="translate(399.21875 0.015625)"/>
      <use xlink:href="#DejaVuSans-47" transform="translate(431.005859 0.015625)"/>
      <use xlink:href="#DejaVuSans-61" transform="translate(508.496094 0.015625)"/>
      <use xlink:href="#DejaVuSans-69" transform="translate(569.775391 0.015625)"/>
      <use xlink:href="#DejaVuSans-6e" transform="translate(597.558594 0.015625)"/>
      <use xlink:href="#DejaVuSans-3a" transform="translate(660.9375 0.015625)"/>
      <use xlink:href="#DejaVuSans-20" transform="translate(694.628906 0.015625)"/>
      <use xlink:href="#DejaVuSans-Oblique-41" transform="translate(726.416016 0.015625)"/>
      <use xlink:href="#DejaVuSans-Oblique-69" transform="translate(794.824219 -16.390625) scale(0.7)"/>
     </g>
    </g>
   </g>
  </g>
  <g id="axes_2">
   <g id="matplotlib.axis_3">
    <g id="ytick_8">
     <g id="line2d_20">
      <defs>
       <path id="m207134bce1" d="M 0 0 
L 3.5 0 
" style="stroke: #000000; stroke-width: 0.8"/>
      </defs>
      <g>
       <use xlink:href="#m207134bce1" x="390.562" y="232.038412" style="stroke: #000000; stroke-width: 0.8"/>
      </g>
     </g>
     <g id="text_24">
      <!-- 0 -->
      <g style="fill: #8b0000" transform="translate(397.562 235.837631) scale(0.1 -0.1)">
       <use xlink:href="#DejaVuSans-30"/>
      </g>
     </g>
    </g>
    <g id="ytick_9">
     <g id="line2d_21">
      <g>
       <use xlink:href="#m207134bce1" x="390.562" y="186.786394" style="stroke: #000000; stroke-width: 0.8"/>
      </g>
     </g>
     <g id="text_25">
      <!-- 1 -->
      <g style="fill: #8b0000" transform="translate(397.562 190.585612) scale(0.1 -0.1)">
       <use xlink:href="#DejaVuSans-31"/>
      </g>
     </g>
    </g>
    <g id="ytick_10">
     <g id="line2d_22">
      <g>
       <use xlink:href="#m207134bce1" x="390.562" y="141.534375" style="stroke: #000000; stroke-width: 0.8"/>
      </g>
     </g>
     <g id="text_26">
      <!-- 2 -->
      <g style="fill: #8b0000" transform="translate(397.562 145.333594) scale(0.1 -0.1)">
       <use xlink:href="#DejaVuSans-32"/>
      </g>
     </g>
    </g>
    <g id="ytick_11">
     <g id="line2d_23">
      <g>
       <use xlink:href="#m207134bce1" x="390.562" y="96.282356" style="stroke: #000000; stroke-width: 0.8"/>
      </g>
     </g>
     <g id="text_27">
      <!-- 3 -->
      <g style="fill: #8b0000" transform="translate(397.562 100.081575) scale(0.1 -0.1)">
       <use xlink:href="#DejaVuSans-33"/>
      </g>
     </g>
    </g>
    <g id="ytick_12">
     <g id="line2d_24">
      <g>
       <use xlink:href="#m207134bce1" x="390.562" y="51.030338" style="stroke: #000000; stroke-width: 0.8"/>
      </g>
     </g>
     <g id="text_28">
      <!-- 4 -->
      <g style="fill: #8b0000" transform="translate(397.562 54.829556) scale(0.1 -0.1)">
       <use xlink:href="#DejaVuSans-34"/>
      </g>
     </g>
    </g>
    <g id="text_29">
     <!-- $f_T$ (THz) -->
     <g style="fill: #8b0000" transform="translate(416.282781 148.919402) rotate(-90) scale(0.11 -0.11)">
      <defs>
       <path id="DejaVuSans-Oblique-66" d="M 3059 4863 
L 2969 4384 
L 2419 4384 
Q 2106 4384 1964 4261 
Q 1822 4138 1753 3809 
L 1691 3500 
L 2638 3500 
L 2553 3053 
L 1606 3053 
L 1013 0 
L 434 0 
L 1031 3053 
L 481 3053 
L 563 3500 
L 1113 3500 
L 1159 3744 
Q 1278 4363 1576 4613 
Q 1875 4863 2516 4863 
L 3059 4863 
z
" transform="scale(0.015625)"/>
       <path id="DejaVuSans-Oblique-54" d="M 378 4666 
L 4325 4666 
L 4225 4134 
L 2559 4134 
L 1759 0 
L 1125 0 
L 1925 4134 
L 275 4134 
L 378 4666 
z
" transform="scale(0.015625)"/>
       <path id="DejaVuSans-54" d="M -19 4666 
L 3928 4666 
L 3928 4134 
L 2272 4134 
L 2272 0 
L 1638 0 
L 1638 4134 
L -19 4134 
L -19 4666 
z
" transform="scale(0.015625)"/>
       <path id="DejaVuSans-48" d="M 628 4666 
L 1259 4666 
L 1259 2753 
L 3553 2753 
L 3553 4666 
L 4184 4666 
L 4184 0 
L 3553 0 
L 3553 2222 
L 1259 2222 
L 1259 0 
L 628 0 
L 628 4666 
z
" transform="scale(0.015625)"/>
       <path id="DejaVuSans-7a" d="M 353 3500 
L 3084 3500 
L 3084 2975 
L 922 459 
L 3084 459 
L 3084 0 
L 275 0 
L 275 525 
L 2438 3041 
L 353 3041 
L 353 3500 
z
" transform="scale(0.015625)"/>
      </defs>
      <use xlink:href="#DejaVuSans-Oblique-66" transform="translate(0 0.015625)"/>
      <use xlink:href="#DejaVuSans-Oblique-54" transform="translate(35.205078 -16.390625) scale(0.7)"/>
      <use xlink:href="#DejaVuSans-20" transform="translate(80.698242 0.015625)"/>
      <use xlink:href="#DejaVuSans-28" transform="translate(112.485352 0.015625)"/>
      <use xlink:href="#DejaVuSans-54" transform="translate(151.499023 0.015625)"/>
      <use xlink:href="#DejaVuSans-48" transform="translate(212.583008 0.015625)"/>
      <use xlink:href="#DejaVuSans-7a" transform="translate(287.77832 0.015625)"/>
      <use xlink:href="#DejaVuSans-29" transform="translate(340.268555 0.015625)"/>
     </g>
    </g>
   </g>
   <g id="line2d_25">
    <path d="M 50.981026 232.034696 
L 53.228737 232.032025 
L 55.828115 232.025841 
L 58.507696 232.014121 
L 61.498293 231.991349 
L 64.712689 231.947365 
L 68.620625 231.862153 
L 72.774504 231.698281 
L 76.868724 231.380832 
L 82.481029 230.777773 
L 88.124429 229.635034 
L 93.921784 227.538032 
L 101.439436 223.822731 
L 109.194593 217.746325 
L 118.082059 208.680353 
L 128.365397 196.632618 
L 138.961754 182.111252 
L 151.929438 165.996612 
L 165.987253 148.485056 
L 182.246641 130.63365 
L 200.888569 112.836075 
L 222.953992 95.226255 
L 248.560534 78.789272 
L 276.462855 63.824966 
L 307.947187 51.86685 
L 338.78071 41.037842 
L 366.580037 34.047208 
L 387.646185 29.100726 
L 402.539505 25.545789 
L 410.368316 25.400494 
L 415.663287 24.000677 
L 417.620897 24.941663 
L 419.899514 28.888105 
L 419.613478 30.169223 
L 420.577893 33.688827 
L 420.433468 38.472983 
L 420.691734 42.146479 
L 420.201796 46.45103 
L 420.584969 50.69465 
L 413.134623 55.872614 
L 433 57.772536 
" clip-path="url(#p00ac760d68)" style="fill: none; stroke: #8b0000; stroke-width: 1.5; stroke-linecap: square"/>
    <defs>
     <path id="m2f75959794" d="M 0 1.5 
C 0.397805 1.5 0.77937 1.341951 1.06066 1.06066 
C 1.341951 0.77937 1.5 0.397805 1.5 0 
C 1.5 -0.397805 1.341951 -0.77937 1.06066 -1.06066 
C 0.77937 -1.341951 0.397805 -1.5 0 -1.5 
C -0.397805 -1.5 -0.77937 -1.341951 -1.06066 -1.06066 
C -1.341951 -0.77937 -1.5 -0.397805 -1.5 0 
C -1.5 0.397805 -1.341951 0.77937 -1.06066 1.06066 
C -0.77937 1.341951 -0.397805 1.5 0 1.5 
z
" style="stroke: #8b0000"/>
    </defs>
    <g clip-path="url(#p00ac760d68)">
     <use xlink:href="#m2f75959794" x="50.981026" y="232.034696" style="fill: #8b0000; stroke: #8b0000"/>
     <use xlink:href="#m2f75959794" x="53.228737" y="232.032025" style="fill: #8b0000; stroke: #8b0000"/>
     <use xlink:href="#m2f75959794" x="55.828115" y="232.025841" style="fill: #8b0000; stroke: #8b0000"/>
     <use xlink:href="#m2f75959794" x="58.507696" y="232.014121" style="fill: #8b0000; stroke: #8b0000"/>
     <use xlink:href="#m2f75959794" x="61.498293" y="231.991349" style="fill: #8b0000; stroke: #8b0000"/>
     <use xlink:href="#m2f75959794" x="64.712689" y="231.947365" style="fill: #8b0000; stroke: #8b0000"/>
     <use xlink:href="#m2f75959794" x="68.620625" y="231.862153" style="fill: #8b0000; stroke: #8b0000"/>
     <use xlink:href="#m2f75959794" x="72.774504" y="231.698281" style="fill: #8b0000; stroke: #8b0000"/>
     <use xlink:href="#m2f75959794" x="76.868724" y="231.380832" style="fill: #8b0000; stroke: #8b0000"/>
     <use xlink:href="#m2f75959794" x="82.481029" y="230.777773" style="fill: #8b0000; stroke: #8b0000"/>
     <use xlink:href="#m2f75959794" x="88.124429" y="229.635034" style="fill: #8b0000; stroke: #8b0000"/>
     <use xlink:href="#m2f75959794" x="93.921784" y="227.538032" style="fill: #8b0000; stroke: #8b0000"/>
     <use xlink:href="#m2f75959794" x="101.439436" y="223.822731" style="fill: #8b0000; stroke: #8b0000"/>
     <use xlink:href="#m2f75959794" x="109.194593" y="217.746325" style="fill: #8b0000; stroke: #8b0000"/>
     <use xlink:href="#m2f75959794" x="118.082059" y="208.680353" style="fill: #8b0000; stroke: #8b0000"/>
     <use xlink:href="#m2f75959794" x="128.365397" y="196.632618" style="fill: #8b0000; stroke: #8b0000"/>
     <use xlink:href="#m2f75959794" x="138.961754" y="182.111252" style="fill: #8b0000; stroke: #8b0000"/>
     <use xlink:href="#m2f75959794" x="151.929438" y="165.996612" style="fill: #8b0000; stroke: #8b0000"/>
     <use xlink:href="#m2f75959794" x="165.987253" y="148.485056" style="fill: #8b0000; stroke: #8b0000"/>
     <use xlink:href="#m2f75959794" x="182.246641" y="130.63365" style="fill: #8b0000; stroke: #8b0000"/>
     <use xlink:href="#m2f75959794" x="200.888569" y="112.836075" style="fill: #8b0000; stroke: #8b0000"/>
     <use xlink:href="#m2f75959794" x="222.953992" y="95.226255" style="fill: #8b0000; stroke: #8b0000"/>
     <use xlink:href="#m2f75959794" x="248.560534" y="78.789272" style="fill: #8b0000; stroke: #8b0000"/>
     <use xlink:href="#m2f75959794" x="276.462855" y="63.824966" style="fill: #8b0000; stroke: #8b0000"/>
     <use xlink:href="#m2f75959794" x="307.947187" y="51.86685" style="fill: #8b0000; stroke: #8b0000"/>
     <use xlink:href="#m2f75959794" x="338.78071" y="41.037842" style="fill: #8b0000; stroke: #8b0000"/>
     <use xlink:href="#m2f75959794" x="366.580037" y="34.047208" style="fill: #8b0000; stroke: #8b0000"/>
     <use xlink:href="#m2f75959794" x="387.646185" y="29.100726" style="fill: #8b0000; stroke: #8b0000"/>
     <use xlink:href="#m2f75959794" x="402.539505" y="25.545789" style="fill: #8b0000; stroke: #8b0000"/>
     <use xlink:href="#m2f75959794" x="410.368316" y="25.400494" style="fill: #8b0000; stroke: #8b0000"/>
     <use xlink:href="#m2f75959794" x="415.663287" y="24.000677" style="fill: #8b0000; stroke: #8b0000"/>
     <use xlink:href="#m2f75959794" x="417.620897" y="24.941663" style="fill: #8b0000; stroke: #8b0000"/>
     <use xlink:href="#m2f75959794" x="419.899514" y="28.888105" style="fill: #8b0000; stroke: #8b0000"/>
     <use xlink:href="#m2f75959794" x="419.613478" y="30.169223" style="fill: #8b0000; stroke: #8b0000"/>
     <use xlink:href="#m2f75959794" x="420.577893" y="33.688827" style="fill: #8b0000; stroke: #8b0000"/>
     <use xlink:href="#m2f75959794" x="420.433468" y="38.472983" style="fill: #8b0000; stroke: #8b0000"/>
     <use xlink:href="#m2f75959794" x="420.691734" y="42.146479" style="fill: #8b0000; stroke: #8b0000"/>
     <use xlink:href="#m2f75959794" x="420.201796" y="46.45103" style="fill: #8b0000; stroke: #8b0000"/>
     <use xlink:href="#m2f75959794" x="420.584969" y="50.69465" style="fill: #8b0000; stroke: #8b0000"/>
     <use xlink:href="#m2f75959794" x="413.134623" y="55.872614" style="fill: #8b0000; stroke: #8b0000"/>
     <use xlink:href="#m2f75959794" x="461.110976" y="60.461065" style="fill: #8b0000; stroke: #8b0000"/>
    </g>
   </g>
   <g id="line2d_26">
    <path d="M 50.981026 232.037735 
L 53.228737 232.037237 
L 55.828115 232.036091 
L 58.507696 232.033903 
L 61.498293 232.029657 
L 64.712689 232.021405 
L 68.620625 232.005389 
L 72.774504 231.974257 
L 76.868724 231.914236 
L 82.481029 231.797988 
L 88.124429 231.576574 
L 93.921784 231.157991 
L 101.439436 230.393243 
L 109.194593 229.061606 
L 118.082059 226.883203 
L 128.365397 223.661683 
L 138.961754 219.303459 
L 151.929438 213.88309 
L 165.987253 207.634517 
L 182.246641 200.674105 
L 200.888569 193.202856 
L 222.953992 185.629945 
L 248.560534 177.842564 
L 276.462855 169.957222 
L 307.947187 162.359553 
L 338.78071 154.913112 
L 366.580037 147.783568 
L 387.646185 141.224285 
L 402.539505 134.512215 
L 410.368316 129.48008 
L 415.663287 124.339465 
L 417.620897 118.39751 
L 419.899514 115.824918 
L 419.613478 111.951702 
L 420.577893 108.909532 
L 420.433468 106.027132 
L 420.691734 104.211214 
L 420.201796 103.336349 
L 420.584969 101.508336 
L 413.134623 101.435551 
L 433 100.467321 
" clip-path="url(#p00ac760d68)" style="fill: none; stroke: #8b0000; stroke-width: 1.5; stroke-linecap: square"/>
    <g clip-path="url(#p00ac760d68)">
     <use xlink:href="#m2f75959794" x="50.981026" y="232.037735" style="fill: #8b0000; stroke: #8b0000"/>
     <use xlink:href="#m2f75959794" x="53.228737" y="232.037237" style="fill: #8b0000; stroke: #8b0000"/>
     <use xlink:href="#m2f75959794" x="55.828115" y="232.036091" style="fill: #8b0000; stroke: #8b0000"/>
     <use xlink:href="#m2f75959794" x="58.507696" y="232.033903" style="fill: #8b0000; stroke: #8b0000"/>
     <use xlink:href="#m2f75959794" x="61.498293" y="232.029657" style="fill: #8b0000; stroke: #8b0000"/>
     <use xlink:href="#m2f75959794" x="64.712689" y="232.021405" style="fill: #8b0000; stroke: #8b0000"/>
     <use xlink:href="#m2f75959794" x="68.620625" y="232.005389" style="fill: #8b0000; stroke: #8b0000"/>
     <use xlink:href="#m2f75959794" x="72.774504" y="231.974257" style="fill: #8b0000; stroke: #8b0000"/>
     <use xlink:href="#m2f75959794" x="76.868724" y="231.914236" style="fill: #8b0000; stroke: #8b0000"/>
     <use xlink:href="#m2f75959794" x="82.481029" y="231.797988" style="fill: #8b0000; stroke: #8b0000"/>
     <use xlink:href="#m2f75959794" x="88.124429" y="231.576574" style="fill: #8b0000; stroke: #8b0000"/>
     <use xlink:href="#m2f75959794" x="93.921784" y="231.157991" style="fill: #8b0000; stroke: #8b0000"/>
     <use xlink:href="#m2f75959794" x="101.439436" y="230.393243" style="fill: #8b0000; stroke: #8b0000"/>
     <use xlink:href="#m2f75959794" x="109.194593" y="229.061606" style="fill: #8b0000; stroke: #8b0000"/>
     <use xlink:href="#m2f75959794" x="118.082059" y="226.883203" style="fill: #8b0000; stroke: #8b0000"/>
     <use xlink:href="#m2f75959794" x="128.365397" y="223.661683" style="fill: #8b0000; stroke: #8b0000"/>
     <use xlink:href="#m2f75959794" x="138.961754" y="219.303459" style="fill: #8b0000; stroke: #8b0000"/>
     <use xlink:href="#m2f75959794" x="151.929438" y="213.88309" style="fill: #8b0000; stroke: #8b0000"/>
     <use xlink:href="#m2f75959794" x="165.987253" y="207.634517" style="fill: #8b0000; stroke: #8b0000"/>
     <use xlink:href="#m2f75959794" x="182.246641" y="200.674105" style="fill: #8b0000; stroke: #8b0000"/>
     <use xlink:href="#m2f75959794" x="200.888569" y="193.202856" style="fill: #8b0000; stroke: #8b0000"/>
     <use xlink:href="#m2f75959794" x="222.953992" y="185.629945" style="fill: #8b0000; stroke: #8b0000"/>
     <use xlink:href="#m2f75959794" x="248.560534" y="177.842564" style="fill: #8b0000; stroke: #8b0000"/>
     <use xlink:href="#m2f75959794" x="276.462855" y="169.957222" style="fill: #8b0000; stroke: #8b0000"/>
     <use xlink:href="#m2f75959794" x="307.947187" y="162.359553" style="fill: #8b0000; stroke: #8b0000"/>
     <use xlink:href="#m2f75959794" x="338.78071" y="154.913112" style="fill: #8b0000; stroke: #8b0000"/>
     <use xlink:href="#m2f75959794" x="366.580037" y="147.783568" style="fill: #8b0000; stroke: #8b0000"/>
     <use xlink:href="#m2f75959794" x="387.646185" y="141.224285" style="fill: #8b0000; stroke: #8b0000"/>
     <use xlink:href="#m2f75959794" x="402.539505" y="134.512215" style="fill: #8b0000; stroke: #8b0000"/>
     <use xlink:href="#m2f75959794" x="410.368316" y="129.48008" style="fill: #8b0000; stroke: #8b0000"/>
     <use xlink:href="#m2f75959794" x="415.663287" y="124.339465" style="fill: #8b0000; stroke: #8b0000"/>
     <use xlink:href="#m2f75959794" x="417.620897" y="118.39751" style="fill: #8b0000; stroke: #8b0000"/>
     <use xlink:href="#m2f75959794" x="419.899514" y="115.824918" style="fill: #8b0000; stroke: #8b0000"/>
     <use xlink:href="#m2f75959794" x="419.613478" y="111.951702" style="fill: #8b0000; stroke: #8b0000"/>
     <use xlink:href="#m2f75959794" x="420.577893" y="108.909532" style="fill: #8b0000; stroke: #8b0000"/>
     <use xlink:href="#m2f75959794" x="420.433468" y="106.027132" style="fill: #8b0000; stroke: #8b0000"/>
     <use xlink:href="#m2f75959794" x="420.691734" y="104.211214" style="fill: #8b0000; stroke: #8b0000"/>
     <use xlink:href="#m2f75959794" x="420.201796" y="103.336349" style="fill: #8b0000; stroke: #8b0000"/>
     <use xlink:href="#m2f75959794" x="420.584969" y="101.508336" style="fill: #8b0000; stroke: #8b0000"/>
     <use xlink:href="#m2f75959794" x="413.134623" y="101.435551" style="fill: #8b0000; stroke: #8b0000"/>
     <use xlink:href="#m2f75959794" x="461.110976" y="99.097204" style="fill: #8b0000; stroke: #8b0000"/>
    </g>
   </g>
   <g id="line2d_27">
    <path d="M 50.981026 232.038127 
L 53.228737 232.037921 
L 55.828115 232.037437 
L 58.507696 232.036517 
L 61.498293 232.034724 
L 64.712689 232.031235 
L 68.620625 232.024442 
L 72.774504 232.011299 
L 76.868724 231.985775 
L 82.481029 231.936341 
L 88.124429 231.841815 
L 93.921784 231.662544 
L 101.439436 231.334176 
L 109.194593 230.752799 
L 118.082059 229.794053 
L 128.365397 228.332788 
L 138.961754 226.3177 
L 151.929438 223.747358 
L 165.987253 220.700813 
L 182.246641 217.278929 
L 200.888569 213.545755 
L 222.953992 209.666167 
L 248.560534 205.685202 
L 276.462855 201.571677 
L 307.947187 197.596261 
L 338.78071 193.626878 
L 366.580037 189.738682 
L 387.646185 186.160928 
L 402.539505 182.636706 
L 410.368316 179.24196 
L 415.663287 176.150619 
L 417.620897 173.38672 
L 419.899514 170.379412 
L 419.613478 168.453878 
L 420.577893 166.474849 
L 420.433468 163.815451 
L 420.691734 162.313214 
L 420.201796 160.829961 
L 420.584969 159.72699 
L 413.134623 158.923508 
L 433 158.273611 
" clip-path="url(#p00ac760d68)" style="fill: none; stroke: #8b0000; stroke-width: 1.5; stroke-linecap: square"/>
    <g clip-path="url(#p00ac760d68)">
     <use xlink:href="#m2f75959794" x="50.981026" y="232.038127" style="fill: #8b0000; stroke: #8b0000"/>
     <use xlink:href="#m2f75959794" x="53.228737" y="232.037921" style="fill: #8b0000; stroke: #8b0000"/>
     <use xlink:href="#m2f75959794" x="55.828115" y="232.037437" style="fill: #8b0000; stroke: #8b0000"/>
     <use xlink:href="#m2f75959794" x="58.507696" y="232.036517" style="fill: #8b0000; stroke: #8b0000"/>
     <use xlink:href="#m2f75959794" x="61.498293" y="232.034724" style="fill: #8b0000; stroke: #8b0000"/>
     <use xlink:href="#m2f75959794" x="64.712689" y="232.031235" style="fill: #8b0000; stroke: #8b0000"/>
     <use xlink:href="#m2f75959794" x="68.620625" y="232.024442" style="fill: #8b0000; stroke: #8b0000"/>
     <use xlink:href="#m2f75959794" x="72.774504" y="232.011299" style="fill: #8b0000; stroke: #8b0000"/>
     <use xlink:href="#m2f75959794" x="76.868724" y="231.985775" style="fill: #8b0000; stroke: #8b0000"/>
     <use xlink:href="#m2f75959794" x="82.481029" y="231.936341" style="fill: #8b0000; stroke: #8b0000"/>
     <use xlink:href="#m2f75959794" x="88.124429" y="231.841815" style="fill: #8b0000; stroke: #8b0000"/>
     <use xlink:href="#m2f75959794" x="93.921784" y="231.662544" style="fill: #8b0000; stroke: #8b0000"/>
     <use xlink:href="#m2f75959794" x="101.439436" y="231.334176" style="fill: #8b0000; stroke: #8b0000"/>
     <use xlink:href="#m2f75959794" x="109.194593" y="230.752799" style="fill: #8b0000; stroke: #8b0000"/>
     <use xlink:href="#m2f75959794" x="118.082059" y="229.794053" style="fill: #8b0000; stroke: #8b0000"/>
     <use xlink:href="#m2f75959794" x="128.365397" y="228.332788" style="fill: #8b0000; stroke: #8b0000"/>
     <use xlink:href="#m2f75959794" x="138.961754" y="226.3177" style="fill: #8b0000; stroke: #8b0000"/>
     <use xlink:href="#m2f75959794" x="151.929438" y="223.747358" style="fill: #8b0000; stroke: #8b0000"/>
     <use xlink:href="#m2f75959794" x="165.987253" y="220.700813" style="fill: #8b0000; stroke: #8b0000"/>
     <use xlink:href="#m2f75959794" x="182.246641" y="217.278929" style="fill: #8b0000; stroke: #8b0000"/>
     <use xlink:href="#m2f75959794" x="200.888569" y="213.545755" style="fill: #8b0000; stroke: #8b0000"/>
     <use xlink:href="#m2f75959794" x="222.953992" y="209.666167" style="fill: #8b0000; stroke: #8b0000"/>
     <use xlink:href="#m2f75959794" x="248.560534" y="205.685202" style="fill: #8b0000; stroke: #8b0000"/>
     <use xlink:href="#m2f75959794" x="276.462855" y="201.571677" style="fill: #8b0000; stroke: #8b0000"/>
     <use xlink:href="#m2f75959794" x="307.947187" y="197.596261" style="fill: #8b0000; stroke: #8b0000"/>
     <use xlink:href="#m2f75959794" x="338.78071" y="193.626878" style="fill: #8b0000; stroke: #8b0000"/>
     <use xlink:href="#m2f75959794" x="366.580037" y="189.738682" style="fill: #8b0000; stroke: #8b0000"/>
     <use xlink:href="#m2f75959794" x="387.646185" y="186.160928" style="fill: #8b0000; stroke: #8b0000"/>
     <use xlink:href="#m2f75959794" x="402.539505" y="182.636706" style="fill: #8b0000; stroke: #8b0000"/>
     <use xlink:href="#m2f75959794" x="410.368316" y="179.24196" style="fill: #8b0000; stroke: #8b0000"/>
     <use xlink:href="#m2f75959794" x="415.663287" y="176.150619" style="fill: #8b0000; stroke: #8b0000"/>
     <use xlink:href="#m2f75959794" x="417.620897" y="173.38672" style="fill: #8b0000; stroke: #8b0000"/>
     <use xlink:href="#m2f75959794" x="419.899514" y="170.379412" style="fill: #8b0000; stroke: #8b0000"/>
     <use xlink:href="#m2f75959794" x="419.613478" y="168.453878" style="fill: #8b0000; stroke: #8b0000"/>
     <use xlink:href="#m2f75959794" x="420.577893" y="166.474849" style="fill: #8b0000; stroke: #8b0000"/>
     <use xlink:href="#m2f75959794" x="420.433468" y="163.815451" style="fill: #8b0000; stroke: #8b0000"/>
     <use xlink:href="#m2f75959794" x="420.691734" y="162.313214" style="fill: #8b0000; stroke: #8b0000"/>
     <use xlink:href="#m2f75959794" x="420.201796" y="160.829961" style="fill: #8b0000; stroke: #8b0000"/>
     <use xlink:href="#m2f75959794" x="420.584969" y="159.72699" style="fill: #8b0000; stroke: #8b0000"/>
     <use xlink:href="#m2f75959794" x="413.134623" y="158.923508" style="fill: #8b0000; stroke: #8b0000"/>
     <use xlink:href="#m2f75959794" x="461.110976" y="157.353958" style="fill: #8b0000; stroke: #8b0000"/>
    </g>
   </g>
   <g id="patch_16">
    <path d="M 54.038 242.44 
L 54.038 13.598805 
" style="fill: none; stroke: #000000; stroke-width: 0.8; stroke-linejoin: miter; stroke-linecap: square"/>
   </g>
   <g id="patch_17">
    <path d="M 390.562 242.44 
L 390.562 13.598805 
" style="fill: none; stroke: #000000; stroke-width: 0.8; stroke-linejoin: miter; stroke-linecap: square"/>
   </g>
   <g id="patch_18">
    <path d="M 54.038 242.44 
L 390.562 242.44 
" style="fill: none; stroke: #000000; stroke-width: 0.8; stroke-linejoin: miter; stroke-linecap: square"/>
   </g>
   <g id="patch_19">
    <path d="M 54.038 13.598805 
L 390.562 13.598805 
" style="fill: none; stroke: #000000; stroke-width: 0.8; stroke-linejoin: miter; stroke-linecap: square"/>
   </g>
   <g id="legend_2">
    <g id="patch_20">
     <path d="M 234.062 36.298805 
L 383.562 36.298805 
Q 385.562 36.298805 385.562 34.298805 
L 385.562 20.598805 
Q 385.562 18.598805 383.562 18.598805 
L 234.062 18.598805 
Q 232.062 18.598805 232.062 20.598805 
L 232.062 34.298805 
Q 232.062 36.298805 234.062 36.298805 
z
" style="fill: #ffffff; opacity: 0.8; stroke: #cccccc; stroke-linejoin: miter"/>
    </g>
    <g id="line2d_28">
     <path d="M 236.062 26.698805 
L 246.062 26.698805 
L 256.062 26.698805 
" style="fill: none; stroke: #8b0000; stroke-width: 1.5; stroke-linecap: square"/>
     <g>
      <use xlink:href="#m2f75959794" x="246.062" y="26.698805" style="fill: #8b0000; stroke: #8b0000"/>
     </g>
    </g>
    <g id="text_30">
     <!-- Transient Frequency: $f_T$ -->
     <g transform="translate(264.062 30.198805) scale(0.1 -0.1)">
      <defs>
       <path id="DejaVuSans-65" d="M 3597 1894 
L 3597 1613 
L 953 1613 
Q 991 1019 1311 708 
Q 1631 397 2203 397 
Q 2534 397 2845 478 
Q 3156 559 3463 722 
L 3463 178 
Q 3153 47 2828 -22 
Q 2503 -91 2169 -91 
Q 1331 -91 842 396 
Q 353 884 353 1716 
Q 353 2575 817 3079 
Q 1281 3584 2069 3584 
Q 2775 3584 3186 3129 
Q 3597 2675 3597 1894 
z
M 3022 2063 
Q 3016 2534 2758 2815 
Q 2500 3097 2075 3097 
Q 1594 3097 1305 2825 
Q 1016 2553 972 2059 
L 3022 2063 
z
" transform="scale(0.015625)"/>
       <path id="DejaVuSans-46" d="M 628 4666 
L 3309 4666 
L 3309 4134 
L 1259 4134 
L 1259 2759 
L 3109 2759 
L 3109 2228 
L 1259 2228 
L 1259 0 
L 628 0 
L 628 4666 
z
" transform="scale(0.015625)"/>
       <path id="DejaVuSans-71" d="M 947 1747 
Q 947 1113 1208 752 
Q 1469 391 1925 391 
Q 2381 391 2643 752 
Q 2906 1113 2906 1747 
Q 2906 2381 2643 2742 
Q 2381 3103 1925 3103 
Q 1469 3103 1208 2742 
Q 947 2381 947 1747 
z
M 2906 525 
Q 2725 213 2448 61 
Q 2172 -91 1784 -91 
Q 1150 -91 751 415 
Q 353 922 353 1747 
Q 353 2572 751 3078 
Q 1150 3584 1784 3584 
Q 2172 3584 2448 3432 
Q 2725 3281 2906 2969 
L 2906 3500 
L 3481 3500 
L 3481 -1331 
L 2906 -1331 
L 2906 525 
z
" transform="scale(0.015625)"/>
       <path id="DejaVuSans-75" d="M 544 1381 
L 544 3500 
L 1119 3500 
L 1119 1403 
Q 1119 906 1312 657 
Q 1506 409 1894 409 
Q 2359 409 2629 706 
Q 2900 1003 2900 1516 
L 2900 3500 
L 3475 3500 
L 3475 0 
L 2900 0 
L 2900 538 
Q 2691 219 2414 64 
Q 2138 -91 1772 -91 
Q 1169 -91 856 284 
Q 544 659 544 1381 
z
M 1991 3584 
L 1991 3584 
z
" transform="scale(0.015625)"/>
       <path id="DejaVuSans-79" d="M 2059 -325 
Q 1816 -950 1584 -1140 
Q 1353 -1331 966 -1331 
L 506 -1331 
L 506 -850 
L 844 -850 
Q 1081 -850 1212 -737 
Q 1344 -625 1503 -206 
L 1606 56 
L 191 3500 
L 800 3500 
L 1894 763 
L 2988 3500 
L 3597 3500 
L 2059 -325 
z
" transform="scale(0.015625)"/>
      </defs>
      <use xlink:href="#DejaVuSans-54" transform="translate(0 0.015625)"/>
      <use xlink:href="#DejaVuSans-72" transform="translate(61.083984 0.015625)"/>
      <use xlink:href="#DejaVuSans-61" transform="translate(102.197266 0.015625)"/>
      <use xlink:href="#DejaVuSans-6e" transform="translate(163.476562 0.015625)"/>
      <use xlink:href="#DejaVuSans-73" transform="translate(226.855469 0.015625)"/>
      <use xlink:href="#DejaVuSans-69" transform="translate(278.955078 0.015625)"/>
      <use xlink:href="#DejaVuSans-65" transform="translate(306.738281 0.015625)"/>
      <use xlink:href="#DejaVuSans-6e" transform="translate(368.261719 0.015625)"/>
      <use xlink:href="#DejaVuSans-74" transform="translate(431.640625 0.015625)"/>
      <use xlink:href="#DejaVuSans-20" transform="translate(470.849609 0.015625)"/>
      <use xlink:href="#DejaVuSans-46" transform="translate(502.636719 0.015625)"/>
      <use xlink:href="#DejaVuSans-72" transform="translate(560.15625 0.015625)"/>
      <use xlink:href="#DejaVuSans-65" transform="translate(601.269531 0.015625)"/>
      <use xlink:href="#DejaVuSans-71" transform="translate(662.792969 0.015625)"/>
      <use xlink:href="#DejaVuSans-75" transform="translate(726.269531 0.015625)"/>
      <use xlink:href="#DejaVuSans-65" transform="translate(789.648438 0.015625)"/>
      <use xlink:href="#DejaVuSans-6e" transform="translate(851.171875 0.015625)"/>
      <use xlink:href="#DejaVuSans-63" transform="translate(914.550781 0.015625)"/>
      <use xlink:href="#DejaVuSans-79" transform="translate(969.53125 0.015625)"/>
      <use xlink:href="#DejaVuSans-3a" transform="translate(1028.710938 0.015625)"/>
      <use xlink:href="#DejaVuSans-20" transform="translate(1062.402344 0.015625)"/>
      <use xlink:href="#DejaVuSans-Oblique-66" transform="translate(1094.189453 0.015625)"/>
      <use xlink:href="#DejaVuSans-Oblique-54" transform="translate(1129.394531 -16.390625) scale(0.7)"/>
     </g>
    </g>
   </g>
  </g>
 </g>
 <defs>
  <clipPath id="p00ac760d68">
   <rect x="54.038" y="13.598805" width="336.524" height="228.841195"/>
  </clipPath>
 </defs>
</svg>
